 <svg version="1.0" xmlns="http://www.w3.org/2000/svg" width="700.000000pt" height="932.000000pt" viewBox="0 0 700.000000 932.000000" preserveAspectRatio="xMidYMid meet">
<metadata>
Created by potrace 1.12, written by Peter Selinger 2001-2015
</metadata>
<g transform="translate(0.000000,932.000000) scale(0.100000,-0.100000)" fill="#000000" stroke="none">
<path d="M6639 9304 c-31 -7 -92 -20 -135 -28 -44 -7 -245 -46 -449 -85 -203
-40 -442 -85 -530 -102 -88 -16 -182 -34 -210 -39 -84 -16 -425 -80 -510 -96
-302 -55 -873 -161 -1040 -194 -110 -22 -294 -55 -410 -75 -697 -120 -726
-125 -745 -134 -20 -11 -26 -104 -7 -119 20 -17 103 -4 722 109 297 54 702
128 900 164 338 62 686 125 800 145 28 5 138 25 245 44 107 20 205 36 218 36
21 0 22 -4 24 -72 5 -208 4 -203 27 -206 12 -2 52 1 89 7 68 11 101 2 65 -18
-11 -5 -42 -12 -69 -15 -54 -6 -248 -39 -569 -96 -60 -11 -240 -43 -400 -70
-159 -27 -342 -59 -405 -70 -112 -20 -225 -40 -460 -81 -63 -11 -412 -71 -775
-133 -648 -110 -660 -113 -666 -137 -4 -13 -8 -44 -9 -69 -2 -25 -8 19 -15 97
-10 100 -18 149 -31 168 -22 34 -24 31 -59 -133 l-29 -133 22 -22 c18 -18 24
-19 31 -8 17 27 36 -5 55 -91 4 -19 13 -28 26 -28 16 0 20 -7 20 -34 0 -19 4
-38 10 -41 6 -4 7 33 3 102 l-6 108 104 17 c57 10 322 54 589 98 267 44 575
96 685 114 110 19 481 82 825 140 344 58 663 112 710 120 202 34 301 48 306
43 3 -3 0 -14 -7 -25 -11 -18 -10 -24 6 -42 14 -16 20 -17 27 -8 6 10 8 10 8
1 0 -7 6 -13 14 -13 7 0 19 -7 26 -16 11 -13 10 -23 -8 -60 -12 -24 -27 -43
-34 -42 -7 2 -13 -4 -13 -12 0 -12 17 -16 85 -18 98 -3 185 15 185 38 0 8 -6
14 -13 12 -12 -2 -52 54 -52 73 0 20 19 38 42 40 21 1 23 7 26 56 2 30 7 58
11 62 8 8 117 27 556 97 143 23 324 52 402 66 78 13 144 24 147 24 4 0 6 7 6
15 0 11 -7 14 -22 10 -13 -3 -176 -30 -363 -60 -187 -30 -425 -68 -530 -85
-104 -17 -200 -33 -212 -36 -17 -5 -23 -2 -23 10 0 9 2 16 5 16 6 0 461 74
830 135 149 25 280 45 293 45 13 0 22 6 22 15 0 8 -5 15 -11 15 -11 0 -245
-38 -369 -60 -341 -60 -843 -140 -877 -140 -56 0 -36 16 35 28 79 14 718 118
812 133 76 12 142 23 260 44 47 8 98 16 115 17 20 2 31 9 33 21 3 14 -1 18
-15 13 -26 -8 -1223 -206 -1242 -206 -14 1 -14 2 1 14 10 7 60 16 110 20 51 4
98 12 103 17 6 6 9 71 7 163 l-2 154 97 17 c54 9 257 46 451 81 194 35 357 64
363 64 5 0 9 -33 9 -72 0 -40 3 -103 6 -140 6 -63 8 -66 36 -72 17 -3 41 -3
54 0 l24 6 0 209 0 209 -152 -1 c-91 -1 -176 -7 -209 -15z m-979 -703 c0 -13
-15 -21 -47 -26 -120 -17 -304 -47 -333 -55 -19 -5 -154 -30 -300 -54 -376
-64 -646 -110 -940 -161 -679 -118 -1616 -275 -1643 -275 -13 0 -18 3 -11 10
5 5 200 41 434 79 234 39 448 75 475 81 73 14 511 89 650 111 66 10 156 25
200 33 92 17 425 77 595 106 63 11 138 24 165 30 28 5 106 18 175 29 69 11
181 30 250 41 69 12 165 28 214 36 50 8 92 17 95 19 8 8 21 5 21 -4z m-40 -56
c0 -14 -66 -34 -150 -44 -52 -7 -126 -19 -165 -27 -38 -7 -232 -41 -430 -73
-198 -33 -466 -78 -595 -100 -1308 -223 -1894 -320 -1899 -315 -14 14 50 27
389 83 403 66 968 162 1445 246 50 8 117 20 150 25 33 4 152 24 265 44 113 19
237 40 275 47 39 6 102 17 140 24 39 7 111 19 160 25 96 13 131 19 295 49 126
23 120 22 120 16z m124 -157 c4 4 21 7 37 8 24 1 27 -1 18 -12 -8 -10 -8 -22
0 -45 18 -52 13 -55 -22 -14 l-34 39 -18 -29 c-45 -73 -78 -84 -49 -17 9 20
17 46 19 57 3 27 3 27 24 16 10 -6 22 -7 25 -3z m26 -108 c0 -5 -7 -10 -15
-10 -8 0 -15 5 -15 10 0 6 7 10 15 10 8 0 15 -4 15 -10z m-3483 -247 c-3 -10
-5 -4 -5 12 0 17 2 24 5 18 2 -7 2 -21 0 -30z"></path>
<path d="M6768 8872 c-49 -8 -88 -19 -88 -24 0 -6 14 -8 33 -4 17 3 62 10 100
17 37 6 67 15 67 20 0 11 -1 11 -112 -9z"></path>
<path d="M6620 8840 c0 -5 9 -10 20 -10 11 0 20 5 20 10 0 6 -9 10 -20 10 -11
0 -20 -4 -20 -10z"></path>
<path d="M6560 8830 c0 -5 9 -10 20 -10 11 0 20 5 20 10 0 6 -9 10 -20 10 -11
0 -20 -4 -20 -10z"></path>
<path d="M1757 8473 c-12 -239 -13 -229 33 -253 21 -11 42 -20 45 -20 3 0 5
27 5 60 0 35 4 60 10 60 6 0 29 -9 51 -20 48 -25 59 -20 59 25 0 36 -24 62
-80 85 -21 9 -30 19 -30 36 0 29 9 30 55 4 20 -11 40 -20 45 -20 6 0 10 20 10
45 l0 45 -90 45 c-49 25 -93 45 -98 45 -5 0 -12 -61 -15 -137z"></path>
<path d="M6970 8547 c-23 -12 -40 -37 -23 -37 11 1 57 40 52 45 -3 2 -15 -1
-29 -8z"></path>
<path d="M1997 8358 c-4 -66 -7 -147 -7 -179 0 -55 2 -60 30 -74 16 -8 34 -15
39 -15 6 0 11 32 13 73 l3 72 35 -105 c19 -58 44 -114 55 -125 l20 -20 6 45
c3 25 6 105 7 179 3 126 2 135 -19 157 -12 13 -26 21 -30 18 -5 -3 -9 -35 -9
-72 -1 -78 -5 -73 -49 53 -30 85 -50 115 -76 115 -8 0 -14 -40 -18 -122z"></path>
<path d="M6930 8354 c-8 -2 -148 -23 -310 -48 -162 -25 -369 -57 -460 -71 -91
-14 -237 -37 -325 -50 -88 -13 -362 -56 -610 -95 -247 -39 -533 -84 -635 -100
-102 -16 -372 -58 -600 -94 -228 -36 -563 -88 -745 -116 -181 -28 -413 -64
-515 -80 -102 -16 -222 -34 -268 -41 -45 -6 -82 -16 -82 -22 0 -6 -7 -2 -15 9
-13 18 -14 16 -15 -26 -1 -41 -3 -38 -18 35 -16 75 -45 139 -76 164 -11 9 -15
-18 -21 -165 -6 -156 -5 -178 9 -193 15 -14 18 -14 26 -1 6 8 8 23 6 32 -2 10
0 20 4 23 4 3 11 -22 15 -54 4 -33 13 -68 20 -78 12 -16 14 -6 12 69 -1 58 2
91 10 99 11 10 13 -11 13 -108 0 -71 4 -124 10 -128 17 -11 11 -25 -11 -25
-44 0 -178 -54 -165 -67 2 -2 29 2 60 10 l56 15 31 -29 c27 -25 29 -29 10 -26
-12 2 -27 12 -35 22 -12 16 -16 17 -30 6 -9 -7 -13 -17 -10 -22 3 -5 -2 -6
-11 -3 -8 4 -27 -1 -41 -11 -14 -9 -28 -15 -30 -12 -2 2 -41 -9 -87 -24 -62
-21 -82 -32 -82 -46 0 -13 13 -21 50 -30 63 -16 79 -22 72 -29 -3 -3 -28 1
-56 10 -53 16 -55 16 -70 16 -5 0 -11 9 -14 19 -5 22 -25 22 -94 1 -35 -11
-43 -18 -43 -37 0 -20 -2 -22 -19 -12 -14 10 -23 9 -42 -4 -37 -26 -55 -21
-28 8 13 13 34 25 47 25 13 0 22 6 22 15 0 21 -10 19 -69 -12 -92 -47 -291
-237 -291 -277 0 -9 -5 -16 -10 -16 -9 0 -100 -133 -100 -146 0 -4 -15 -32
-34 -63 -60 -99 -129 -280 -171 -446 -2 -6 -28 -19 -59 -28 -65 -21 -77 -35
-111 -138 -32 -98 -32 -99 13 -99 43 0 62 14 62 46 0 34 36 110 55 118 31 11
43 6 50 -21 5 -20 2 -31 -10 -39 -12 -9 -15 -20 -10 -36 4 -15 3 -19 -3 -10
-7 10 -11 10 -22 -3 -14 -17 -14 -17 14 -32 16 -9 14 -11 -16 -17 -50 -9 -166
-124 -203 -201 -16 -33 -30 -62 -32 -64 -7 -10 -42 34 -46 58 -4 25 -4 25 -12
4 -11 -33 -37 -30 -29 2 5 19 2 25 -10 25 -18 0 -21 -31 -6 -60 8 -15 2 -44
-24 -122 -67 -201 -126 -537 -133 -760 -11 -334 33 -465 273 -804 74 -104 181
-263 240 -354 58 -91 123 -191 145 -223 40 -59 66 -141 90 -281 8 -49 8 -70 1
-75 -18 -11 -41 -275 -48 -536 -9 -350 -16 -446 -34 -456 -8 -4 -62 -30 -120
-57 -111 -52 -157 -66 -255 -77 -114 -12 -235 -41 -235 -56 0 -7 7 -8 18 -4
42 17 76 23 159 30 48 4 132 18 186 32 65 17 102 22 109 15 13 -13 -45 -106
-76 -120 -17 -7 -27 -8 -32 -1 -8 14 -36 -10 -27 -25 3 -6 -3 -3 -14 7 -13 11
-39 19 -70 20 -31 2 -56 9 -67 20 -13 13 -32 16 -79 14 -34 -1 -67 -5 -72 -9
-6 -4 -27 -5 -48 -4 -34 3 -124 -15 -147 -29 -5 -3 -19 -8 -30 -10 -20 -4 -64
-35 -105 -74 -23 -23 -99 -51 -135 -50 l-25 0 28 15 c31 17 32 22 13 129 -24
129 -40 229 -41 250 -1 11 -8 53 -15 93 -10 55 -11 78 -2 97 7 14 12 46 12 70
0 37 -4 47 -30 65 -18 13 -30 30 -30 44 0 12 -9 39 -20 61 -11 22 -20 43 -20
48 0 33 -81 97 -121 97 -5 0 -9 -148 -9 -328 0 -249 3 -331 13 -341 9 -11 9
-13 0 -7 -10 5 -13 -9 -13 -59 0 -53 3 -66 14 -62 41 16 97 30 101 25 3 -3 13
-48 21 -99 8 -52 19 -102 25 -111 6 -12 6 -18 -2 -18 -5 0 -8 -4 -5 -9 3 -5
-16 -12 -42 -17 -26 -4 -50 -8 -54 -10 -5 -1 -19 -2 -33 -3 l-25 -1 0 -785 0
-785 3106 0 3105 0 -7 22 c-4 13 -18 63 -31 113 -13 49 -28 106 -34 125 -6 19
-14 53 -19 75 -5 22 -24 87 -43 145 -39 119 -50 177 -36 185 5 4 3 15 -6 28
-21 30 -19 37 10 37 16 0 25 6 25 15 0 9 -6 15 -12 14 -28 -3 -36 2 -40 26 -6
31 -5 31 162 49 69 8 207 24 308 37 199 25 210 24 224 -27 27 -97 69 -265 91
-364 14 -63 40 -177 56 -252 17 -75 31 -157 31 -182 l0 -46 55 0 55 0 -2 1036
-3 1037 -45 14 c-25 8 -95 16 -159 17 -130 3 -133 5 -120 85 4 25 3 51 -1 56
-33 41 -53 241 -30 286 7 12 21 19 39 19 15 0 36 9 46 20 10 11 16 20 14 21
-2 0 -77 2 -167 4 -89 2 -167 7 -172 10 -6 3 -10 15 -10 26 0 21 -20 25 -38 7
-9 -9 -12 -5 -12 19 0 35 -16 43 -94 43 -32 0 -56 -6 -68 -16 -16 -16 -18 -16
-24 0 -8 20 -28 21 -44 1 -10 -13 -10 -19 4 -33 11 -13 16 -37 16 -81 0 -54 3
-64 20 -68 11 -3 21 -13 21 -22 1 -9 3 -29 4 -46 1 -16 5 -38 9 -47 4 -9 3
-25 -2 -35 -14 -26 -17 -78 -8 -151 7 -55 11 -65 34 -73 14 -6 49 -9 76 -7 47
3 51 5 54 30 2 14 9 32 17 38 11 9 13 -3 12 -72 l-2 -83 45 -6 c25 -3 39 -7
31 -7 -11 -2 -11 -5 -1 -17 16 -19 3 -40 -15 -25 -14 12 -65 -6 -65 -22 0 -5
-5 -6 -10 -3 -6 4 -8 10 -5 15 3 5 -4 18 -16 29 -14 13 -19 26 -15 39 5 16 0
24 -25 36 -39 20 -60 20 -84 2 -18 -13 -18 -15 -2 -31 10 -9 15 -20 13 -23 -2
-4 -34 -5 -70 -4 -62 3 -65 5 -55 23 13 25 4 39 -25 39 -12 0 -30 6 -40 13
-16 12 -17 17 -6 37 11 20 17 22 56 16 24 -3 46 -1 49 4 8 13 -5 18 -63 26
-52 7 -52 7 -66 -27 -8 -19 -17 -53 -21 -76 -6 -41 -6 -43 19 -43 16 0 26 -6
26 -15 0 -8 0 -18 1 -22 0 -4 -5 -9 -12 -12 -6 -2 -9 3 -7 10 3 9 -9 18 -31
26 -65 23 -102 13 -66 -17 21 -17 12 -24 -14 -11 -12 7 -18 17 -15 26 5 12 -3
15 -32 17 -22 0 -49 0 -61 -1 -24 -2 -32 22 -13 34 19 12 10 41 -20 64 -43 31
-63 24 -73 -24 -14 -67 -22 -88 -33 -92 -11 -4 -41 25 -92 84 -10 13 -22 20
-26 16 -3 -3 -7 -1 -7 5 -1 7 -2 18 -3 25 -1 14 -102 66 -131 67 -11 0 -32 6
-46 14 -14 7 -37 16 -52 20 -23 5 -27 3 -27 -14 0 -30 -15 -25 -59 19 -21 21
-61 51 -87 66 -27 15 -71 42 -99 60 -74 48 -108 64 -156 71 -24 3 -61 12 -82
20 -20 8 -55 14 -76 14 -36 0 -41 4 -68 48 -47 78 -47 79 -7 133 21 28 44 49
54 49 11 0 23 8 28 17 5 9 25 24 43 32 27 13 35 23 37 49 2 23 12 38 30 50 15
9 27 23 28 30 3 33 4 34 19 22 11 -9 18 -10 29 -1 17 14 41 -11 32 -34 -7 -20
4 -19 20 3 10 14 10 20 -3 35 -10 10 -12 17 -5 17 7 0 12 6 12 14 0 9 -17 16
-46 21 -43 6 -46 8 -40 31 3 13 9 36 13 52 3 15 15 33 25 41 17 11 17 15 6 30
-8 9 -13 22 -12 29 1 6 2 20 3 29 1 14 4 13 25 -6 19 -18 30 -21 59 -16 26 5
56 0 104 -16 37 -12 74 -24 81 -25 20 -5 14 -36 -15 -66 -33 -35 -77 -38 -94
-6 -6 12 -20 30 -30 41 -17 19 -18 19 -51 -4 -18 -13 -38 -23 -45 -21 -16 4
-28 -37 -14 -51 7 -7 18 -3 35 16 14 15 29 27 35 27 5 0 17 3 26 6 14 6 15 2
10 -29 -7 -33 -5 -36 22 -39 38 -4 36 -22 -4 -26 -42 -4 -43 -22 -2 -22 23 0
48 15 99 58 64 53 69 60 69 99 1 48 -8 57 -63 58 -23 1 -43 8 -50 17 -7 9 -29
19 -49 23 -21 4 -37 13 -37 21 0 7 -11 16 -24 20 -13 3 -43 25 -67 50 -33 33
-40 47 -31 56 8 8 15 8 25 0 8 -7 29 -9 50 -5 23 3 42 1 52 -7 12 -10 16 -9
21 3 11 29 -7 37 -80 37 -53 0 -77 4 -86 15 -7 8 -9 15 -4 16 5 0 74 1 154 2
l145 2 3 68 c3 61 5 67 25 67 62 1 160 81 215 175 105 180 103 177 185 222
l78 43 227 -2 227 -3 3 -77 3 -78 -194 0 c-162 0 -197 -3 -207 -15 -17 -21
-10 -26 39 -28 l42 -1 -3 -46 c-2 -27 -8 -46 -15 -46 -30 -3 -33 -4 -33 -12 0
-9 100 -13 113 -5 5 3 -2 10 -15 17 -27 13 -35 48 -15 65 15 11 139 23 235 21
43 -1 52 2 54 17 1 10 4 -16 8 -57 3 -41 3 -79 -2 -85 -11 -13 -9 -54 5 -95
12 -34 12 -35 73 -35 105 0 128 -46 43 -84 -45 -19 -51 -25 -46 -47 3 -16 -1
-28 -12 -34 -13 -7 -14 -11 -3 -21 19 -20 14 -31 -10 -27 -16 2 -22 9 -21 23
1 10 -7 25 -18 33 -10 7 -19 19 -19 27 0 22 -20 28 -34 10 -11 -15 -16 -15
-33 -5 -33 21 -50 8 -45 -34 4 -38 13 -44 31 -22 11 13 81 17 81 4 0 -4 -3
-14 -6 -23 -9 -22 18 -75 39 -75 9 0 23 11 29 25 16 34 32 26 38 -19 7 -50 26
-45 22 6 -3 42 18 78 44 78 19 0 27 19 14 35 -16 19 -9 60 10 60 10 0 16 -12
18 -38 2 -24 8 -37 15 -34 7 2 11 14 9 25 -2 14 2 22 11 22 10 0 17 -17 21
-52 6 -43 4 -54 -12 -71 -13 -13 -22 -15 -26 -8 -4 6 -2 11 3 11 6 0 11 7 11
15 0 17 -16 20 -25 5 -3 -6 -17 -7 -30 -4 -30 7 -41 -12 -15 -28 24 -15 26
-28 5 -28 -16 0 -21 -15 -7 -23 4 -3 30 -7 57 -8 l50 -4 5 40 c3 27 10 40 20
40 11 0 15 -12 15 -50 l0 -50 -144 -3 c-123 -2 -146 0 -162 14 -17 15 -19 15
-19 1 0 -9 4 -18 9 -21 5 -3 9 -28 9 -55 0 -48 -1 -49 -37 -55 -57 -9 -67 -8
-53 6 16 16 15 38 0 38 -7 0 -24 -9 -38 -20 -50 -39 -150 -15 -150 36 0 13 -4
24 -10 24 -5 0 -10 -20 -10 -45 0 -33 4 -45 15 -45 8 0 15 -7 15 -15 0 -8 8
-15 18 -15 10 0 24 -6 31 -12 10 -11 14 -10 22 5 13 22 25 22 32 -2 4 -17 17
-19 118 -23 64 -2 124 0 137 6 16 6 26 6 34 -2 7 -7 34 -12 60 -12 41 0 50 3
57 23 5 12 7 25 4 30 -7 12 -82 8 -111 -7 -15 -8 -45 -15 -67 -17 -37 -4 -40
-2 -43 24 -4 31 -15 28 143 31 95 1 100 2 103 23 2 13 22 36 48 55 33 24 43
36 38 50 -5 16 -2 18 20 12 30 -7 56 10 56 37 0 22 99 105 156 130 36 16 51
18 120 9 49 -6 80 -7 82 -1 2 5 19 7 38 4 21 -4 34 -2 34 5 0 6 -6 9 -14 6 -8
-3 -17 -1 -20 5 -4 6 -11 113 -16 238 -16 379 -23 513 -28 513 -3 0 -10 -7
-16 -16 -15 -20 -46 -8 -46 17 0 24 25 35 44 20 23 -19 28 3 21 84 l-7 75
-157 -1 c-264 -2 -444 -13 -448 -26 -7 -19 72 -36 95 -22 24 15 54 4 50 -18
-2 -14 -16 -17 -71 -20 -81 -3 -87 -6 -87 -43 0 -16 -3 -31 -7 -33 -5 -3 -46
1 -91 8 -68 10 -85 9 -89 -1 -7 -18 5 -34 21 -28 8 3 17 1 20 -4 3 -6 15 -8
26 -5 16 4 19 2 14 -11 -5 -13 -16 -16 -43 -14 -35 3 -36 2 -33 -28 l3 -31
-89 -2 -90 -1 -7 108 c-3 59 -7 121 -8 137 -2 25 -6 30 -27 30 -38 0 -46 -29
-39 -146 7 -129 4 -139 -31 -139 -27 0 -29 3 -36 58 -4 31 -11 60 -17 64 -19
12 6 72 33 78 32 7 41 57 14 77 -16 11 -16 22 -5 135 7 68 14 131 16 141 2 9
-1 68 -6 130 -12 142 -39 233 -78 271 -34 32 -61 29 -62 -6 l0 -23 -12 23 c-9
20 -8 26 7 34 17 9 16 12 -7 37 -27 28 -51 87 -26 64 7 -7 26 -13 41 -13 21 0
31 6 38 25 5 14 13 25 17 26 68 7 423 24 436 21 13 -3 17 -15 17 -54 0 -45 2
-49 16 -37 14 11 18 10 29 -5 8 -10 18 -15 24 -11 17 10 13 65 -4 70 -52 16
-50 15 -33 31 10 11 42 17 99 20 46 2 160 9 252 15 92 5 172 7 177 4 6 -3 10
-24 10 -45 0 -45 11 -56 39 -38 16 10 25 9 46 -2 25 -13 28 -13 42 5 14 19 13
41 -2 78 -6 15 -1 17 49 17 43 0 56 3 56 15 0 11 -13 15 -54 15 -49 0 -55 2
-58 23 -2 12 -9 21 -16 19 -6 -1 -12 2 -12 8 0 6 30 10 70 10 64 0 70 2 70 20
0 19 -4 21 -57 15 -32 -3 -182 -12 -333 -20 -151 -9 -387 -22 -525 -30 -137
-9 -272 -16 -300 -18 l-49 -2 -8 45 c-20 116 -30 150 -43 150 -18 0 -10 45 20
115 12 28 30 74 39 102 24 71 41 80 33 18 -4 -37 0 -59 16 -92 12 -24 27 -43
34 -43 10 0 11 5 4 19 -8 14 -7 22 5 32 12 10 17 9 30 -9 8 -12 22 -22 30 -22
26 0 26 27 0 68 -25 40 -56 59 -76 47 -14 -9 -25 24 -12 37 5 5 34 13 63 16
l54 7 3 53 3 52 -35 0 c-20 0 -36 5 -36 10 0 6 6 10 14 10 7 0 121 9 252 20
348 30 842 70 859 70 9 0 15 10 15 25 0 14 -4 25 -8 25 -7 0 -787 -65 -1062
-89 -52 -4 -98 -5 -101 -2 -4 3 -19 44 -33 91 -15 47 -32 95 -38 107 -6 12 -8
28 -5 36 3 8 1 19 -4 24 -6 6 -12 28 -14 49 -2 21 -9 43 -17 49 -7 5 -14 23
-15 40 -1 16 -7 31 -13 33 -5 2 -10 15 -10 28 0 28 -33 45 -89 48 -34 1 -35 0
-71 -89 -24 -61 -41 -89 -50 -87 -8 2 -28 5 -43 7 -16 2 -30 5 -31 7 -1 2 -9
20 -19 41 -9 20 -20 37 -24 37 -5 0 -25 -54 -46 -120 -20 -66 -41 -120 -45
-120 -4 0 -17 27 -28 61 -20 56 -20 63 -7 91 18 35 11 65 -37 172 -52 116
-120 207 -254 342 -138 137 -239 212 -398 294 -77 40 -90 43 -108 32 -19 -12
-20 -11 -11 6 11 20 6 23 -218 124 -190 86 -430 155 -671 194 -130 21 -454 29
-550 15 -41 -7 -107 -16 -145 -21 -39 -5 -82 -13 -95 -18 -14 -6 -59 -20 -100
-32 -41 -13 -115 -36 -164 -52 -49 -16 -92 -26 -95 -22 -3 3 -6 52 -7 110 l0
104 30 5 c17 3 58 9 91 15 33 5 272 41 530 80 516 77 1396 213 2050 315 231
36 555 86 720 110 165 25 372 56 460 70 88 13 277 40 420 60 143 20 275 38
293 41 32 6 32 7 32 65 0 58 0 59 -27 58 -16 -1 -35 -3 -43 -5z m-4630 -710
c0 -21 -4 -33 -10 -29 -5 3 -10 22 -10 41 0 21 4 33 10 29 6 -3 10 -22 10 -41z
m590 -264 c15 -12 41 -20 65 -20 22 0 49 -7 59 -15 11 -8 25 -15 31 -15 13 0
13 28 1 49 -7 10 -4 11 13 1 12 -6 19 -15 16 -21 -4 -5 -3 -8 2 -7 4 1 17 -3
28 -8 11 -6 42 -12 69 -13 42 -1 47 1 36 14 -10 12 -9 15 6 15 11 0 24 -8 31
-19 10 -17 87 -38 119 -33 6 1 17 -5 24 -13 7 -8 20 -15 30 -15 9 0 20 -3 24
-7 11 -11 131 -52 198 -67 32 -8 65 -19 73 -26 8 -7 32 -11 52 -9 33 4 38 1
39 -17 1 -18 -4 -21 -30 -19 -17 1 -44 7 -60 13 -32 14 -51 6 -23 -9 10 -6 31
-24 48 -40 30 -29 49 -37 49 -20 0 6 -4 13 -10 16 -5 3 -10 10 -10 16 0 13 34
11 49 -3 10 -11 15 -10 25 5 15 20 32 22 42 5 5 -7 2 -9 -8 -5 -11 4 -15 1
-13 -11 2 -9 4 -20 4 -24 1 -5 8 -8 17 -8 8 0 12 5 9 10 -9 14 21 24 43 15 9
-4 24 -9 32 -10 8 -1 44 -12 80 -23 46 -14 90 -20 147 -20 55 1 88 -3 98 -12
9 -8 38 -13 66 -12 29 0 47 -3 44 -9 -4 -5 -15 -9 -25 -9 -22 0 -39 -22 -22
-28 7 -2 10 -13 6 -28 -4 -17 -2 -24 9 -24 10 0 13 9 11 29 -6 49 25 49 122 2
46 -23 88 -41 94 -41 5 0 10 -4 10 -8 0 -5 6 -17 14 -27 12 -16 16 -17 30 -6
20 17 62 7 75 -18 9 -16 7 -18 -17 -14 l-27 4 29 -16 c20 -12 25 -20 17 -28
-7 -7 -7 -14 1 -24 8 -10 1 -10 -25 3 -30 14 -39 15 -52 4 -9 -7 -13 -21 -10
-31 4 -11 2 -19 -4 -19 -16 0 -9 -24 9 -32 9 -4 -1 -7 -22 -7 -33 -1 -40 -5
-58 -41 -11 -22 -25 -40 -31 -40 -6 0 -7 -5 -3 -11 3 -6 0 -15 -7 -20 -7 -4
-10 -11 -7 -15 4 -4 19 1 33 10 14 9 25 15 25 13 0 -2 20 -1 45 3 34 5 45 4
45 -7 0 -7 -7 -13 -16 -13 -8 0 -12 -5 -9 -11 5 -7 14 -5 28 4 19 13 28 12 70
-4 43 -17 51 -18 82 -5 29 13 33 13 28 0 -3 -8 -10 -14 -17 -14 -6 0 -3 -7 7
-14 14 -11 15 -15 5 -19 -7 -2 -1 -3 15 -1 27 4 27 3 8 -17 -14 -15 -30 -20
-63 -19 -65 3 -78 1 -78 -10 0 -5 14 -10 32 -10 43 0 29 -10 -24 -18 -52 -7
-78 -6 -140 3 -50 8 -66 25 -24 25 14 0 28 5 31 11 4 6 -4 9 -22 7 -23 -2 -27
1 -25 16 3 17 -2 18 -57 11 -42 -5 -61 -4 -61 4 0 6 3 11 8 11 4 0 13 10 21
23 13 20 13 21 -3 8 -9 -8 -20 -11 -24 -7 -4 4 1 12 11 17 9 6 17 16 17 24 0
8 8 19 18 24 9 6 12 11 5 11 -6 0 -15 -5 -19 -11 -3 -6 -17 -8 -29 -5 -14 4
-25 1 -27 -6 -7 -19 -134 -20 -149 -2 -6 8 -18 14 -25 14 -8 0 -14 3 -14 7 0
12 33 43 47 43 7 0 13 5 13 10 0 15 -7 13 -52 -20 -41 -30 -65 -39 -53 -20 12
19 -5 30 -32 19 -30 -11 -103 -3 -103 12 0 6 4 8 9 4 5 -3 12 -1 16 5 3 5 -1
10 -10 10 -9 0 -13 5 -10 10 3 6 2 10 -3 10 -14 0 -23 43 -11 55 5 5 28 15 51
20 43 11 108 75 75 75 -9 0 -23 -8 -33 -17 -9 -10 -32 -23 -50 -29 -30 -10
-32 -10 -21 8 7 10 19 20 27 23 25 8 92 73 86 83 -3 6 1 13 9 16 11 4 15 0 13
-11 -2 -9 3 -18 10 -20 7 -3 12 5 12 22 0 25 3 26 37 23 30 -2 38 1 41 16 2
11 0 16 -7 12 -15 -10 -61 4 -61 19 0 15 -71 28 -84 15 -6 -6 -17 -10 -26 -10
-8 0 -25 -21 -38 -46 -18 -38 -20 -50 -10 -62 11 -13 13 -12 18 7 5 20 7 21
25 7 20 -15 20 -15 -1 -35 -22 -20 -22 -20 -40 0 -22 25 -37 24 -29 -1 4 -14
2 -20 -9 -20 -12 0 -13 -5 -5 -30 10 -26 7 -35 -21 -72 -24 -34 -28 -44 -15
-46 8 -2 15 -8 15 -13 0 -6 -4 -7 -10 -4 -12 7 -24 -39 -16 -60 3 -8 1 -15 -4
-15 -6 0 -10 6 -10 14 0 24 -32 28 -47 6 -17 -24 -33 -26 -33 -5 0 8 5 15 10
15 6 0 10 10 10 23 0 13 5 28 11 34 9 9 7 10 -10 6 -22 -6 -24 -1 -15 34 4 13
10 20 15 17 5 -3 9 5 9 17 0 18 3 20 12 11 9 -9 9 -15 0 -24 -16 -16 -15 -28
3 -28 25 0 35 32 19 63 -8 15 -19 25 -24 22 -5 -3 -18 0 -28 6 -15 10 -20 24
-20 62 0 27 4 44 8 37 9 -15 30 -5 30 15 0 7 -14 23 -30 35 l-31 22 7 -29 c7
-25 6 -27 -9 -14 -10 7 -17 20 -17 27 0 8 -4 14 -10 14 -13 0 -13 -13 1 -27 7
-7 11 -37 11 -67 0 -46 3 -56 16 -56 15 -1 15 -2 -1 -14 -10 -8 -17 -20 -16
-28 4 -33 -2 -69 -11 -63 -6 4 -8 10 -6 14 7 11 -15 101 -25 101 -5 0 -9 -4
-9 -10 0 -5 -4 -10 -10 -10 -5 0 -10 15 -10 33 0 24 -13 47 -53 94 -39 46 -53
58 -58 46 -4 -13 -11 -9 -33 18 -15 19 -25 28 -21 22 3 -7 1 -13 -4 -13 -6 0
-11 15 -11 34 0 40 -6 45 -39 37 l-23 -6 27 -15 c25 -13 27 -18 21 -56 -5 -37
-3 -42 19 -52 25 -12 36 -52 13 -48 -21 4 -123 107 -123 124 0 8 -6 17 -14 20
-10 3 -12 0 -8 -12 4 -10 1 -16 -8 -16 -18 0 -19 -12 -3 -28 9 -9 9 -12 -1
-12 -7 0 -9 -4 -6 -10 3 -5 0 -7 -8 -4 -8 3 -17 15 -20 26 -3 11 -10 17 -16
14 -6 -4 -8 16 -7 53 3 57 2 60 -25 72 -17 7 -29 19 -29 30 0 13 -7 19 -23 19
-13 0 -28 5 -35 12 -6 6 -15 9 -19 5 -3 -4 2 -13 12 -21 13 -9 15 -15 6 -20
-6 -4 -18 -3 -25 3 -8 6 -27 11 -42 9 -26 -2 -113 44 -122 64 -2 4 -9 5 -17 2
-8 -3 -20 4 -27 15 -7 12 -18 21 -24 21 -6 0 -17 7 -24 15 -7 8 -23 15 -35 15
-28 0 -24 -29 7 -49 14 -8 18 -9 13 -1 -5 8 -1 11 10 8 10 -1 20 -9 23 -17 3
-9 0 -11 -7 -6 -9 5 -9 1 1 -14 10 -17 19 -20 44 -15 23 4 33 2 37 -11 4 -9 3
-14 -3 -10 -14 9 -12 -9 2 -23 15 -15 32 -16 23 -2 -3 6 -1 10 4 10 13 0 14
-11 3 -25 -8 -12 -44 -16 -37 -4 3 4 -12 15 -32 24 -21 9 -55 25 -75 36 -20
10 -43 19 -50 19 -8 0 -20 6 -26 12 -7 7 -39 13 -72 13 -43 0 -64 6 -79 19
-22 20 -25 18 -15 -8 3 -9 10 -14 14 -11 5 3 11 1 15 -5 10 -16 -21 -12 -35 5
-8 9 -22 12 -41 8 -20 -4 -29 -1 -29 7 0 7 8 10 20 7 11 -3 20 -2 20 2 0 15
-25 31 -51 31 -25 0 -47 25 -33 39 13 14 170 17 213 5 25 -7 51 -9 59 -5 10 6
6 10 -17 14 -17 4 -31 11 -31 17 0 16 23 11 50 -10z m-290 -87 c39 -18 52 -32
45 -50 -2 -7 0 -15 5 -18 6 -4 10 1 10 9 0 17 18 21 35 8 13 -9 20 -72 7 -72
-5 0 -12 3 -16 7 -7 7 -38 13 -70 14 -10 0 -29 7 -41 15 -34 22 -145 21 -123
-2 6 -5 30 -11 53 -13 5 -1 4 -6 -2 -12 -13 -13 -72 10 -105 40 -20 20 -15 27
15 22 5 -1 6 3 2 9 -3 6 -10 8 -15 5 -5 -3 -12 0 -16 6 -4 7 -3 9 4 5 6 -3 13
-2 17 3 3 6 18 3 36 -8 17 -10 39 -16 50 -14 18 5 18 6 2 18 -9 7 -22 11 -28
8 -7 -2 -18 3 -25 12 -10 13 -9 15 6 16 11 1 25 1 33 0 7 -2 10 3 6 9 -9 14
69 3 115 -17z m1335 6 c-10 -15 -25 -10 -19 6 4 8 10 12 15 9 5 -3 7 -10 4
-15z m-1573 -51 c-7 -7 -12 -8 -12 -2 0 14 12 26 19 19 2 -3 -1 -11 -7 -17z
m518 -8 c8 -5 11 -10 5 -10 -5 0 -17 5 -25 10 -8 5 -10 10 -5 10 6 0 17 -5 25
-10z m1190 -31 c15 -28 5 -23 -15 7 -9 15 -12 23 -6 20 6 -4 16 -16 21 -27z
m41 4 c13 -16 12 -17 -3 -4 -17 13 -22 21 -14 21 2 0 10 -8 17 -17z m-1681
-38 c23 -8 65 -15 93 -15 89 0 38 -20 -64 -26 -122 -6 -118 -6 -159 -1 -84 11
-105 27 -36 27 33 0 45 3 40 12 -4 7 -3 8 5 4 6 -4 27 -9 46 -11 25 -2 32 0
28 11 -6 17 -5 17 47 -1z m115 5 c3 -5 -1 -10 -9 -10 -9 0 -16 5 -16 10 0 6 4
10 9 10 6 0 13 -4 16 -10z m358 -25 c16 -3 25 -10 21 -16 -3 -6 3 -5 15 2 20
13 20 14 -7 25 -22 10 -23 12 -7 13 24 0 57 -23 47 -34 -4 -4 0 -5 8 -3 21 7
50 -10 50 -28 0 -12 -6 -15 -25 -10 -14 4 -25 2 -25 -4 0 -5 7 -10 17 -10 9 0
30 -10 47 -23 17 -13 40 -27 51 -32 18 -7 18 -9 3 -12 -10 -3 -18 -8 -18 -12
0 -10 -103 40 -127 61 -10 9 -40 28 -68 42 -27 15 -40 25 -27 22 19 -4 21 -2
11 10 -6 7 -15 11 -20 8 -5 -3 -14 -2 -20 2 -17 10 11 24 30 14 9 -5 29 -11
44 -15z m1197 4 c0 -6 -4 -7 -10 -4 -5 3 -10 11 -10 16 0 6 5 7 10 4 6 -3 10
-11 10 -16z m116 12 c-3 -5 -15 -7 -26 -4 -28 7 -25 13 6 13 14 0 23 -4 20 -9z
m-1507 -28 c4 -3 -28 2 -47 6 -2 1 0 6 3 11 5 8 12 7 23 -2 10 -7 19 -14 21
-15z m452 0 c13 -16 12 -17 -3 -4 -10 7 -18 15 -18 17 0 8 8 3 21 -13z m-551
3 c0 -11 -19 -15 -25 -6 -3 5 1 10 9 10 9 0 16 -2 16 -4z m760 -57 c0 -10 4
-20 10 -24 5 -3 6 -12 3 -21 -5 -13 -9 -11 -29 7 -13 12 -24 19 -24 14 0 -5
-2 -6 -5 -3 -9 8 6 38 16 32 14 -8 11 4 -8 34 l-17 27 27 -24 c15 -14 27 -32
27 -42z m-1069 21 c33 -10 45 -18 42 -28 -4 -9 -14 -11 -29 -8 -13 4 -24 2
-24 -3 0 -16 29 -33 48 -27 11 4 24 0 32 -9 7 -8 9 -15 4 -16 -5 0 -26 -2 -48
-3 -35 -3 -39 0 -52 31 -12 28 -18 32 -38 27 -17 -4 -31 2 -52 21 -16 15 -23
24 -16 20 6 -3 12 -2 12 4 0 11 62 20 70 10 3 -3 26 -12 51 -19z m2192 -37 c4
-4 -11 -13 -34 -21 -51 -17 -61 -10 -17 11 38 19 42 20 51 10z m-2308 -14 c4
-5 17 -9 28 -8 39 3 47 -1 47 -21 0 -11 4 -20 10 -20 5 0 26 -11 46 -25 25
-17 51 -25 83 -26 l46 -1 -55 -12 c-30 -7 -65 -16 -77 -20 -14 -5 -23 -3 -23
3 0 6 10 11 23 11 18 0 19 2 7 10 -22 14 -28 12 -35 -10 -4 -12 -15 -20 -29
-20 -12 0 -27 -5 -33 -11 -6 -6 -23 -12 -39 -14 -15 -1 -33 -10 -39 -18 -20
-28 -49 -13 -65 33 -18 50 -48 71 -35 24 5 -16 9 -42 9 -58 1 -19 8 -31 21
-36 18 -7 18 -8 -5 -11 -16 -3 -21 -7 -13 -12 7 -5 20 0 31 11 14 14 24 17 36
10 11 -6 27 -6 44 1 20 8 21 10 6 8 -11 -1 -23 3 -25 8 -2 6 25 11 68 12 42 1
84 8 102 18 17 8 31 11 31 6 0 -6 -19 -16 -42 -23 l-43 -13 45 -6 c25 -4 49
-3 55 2 5 5 24 9 42 9 25 0 31 -4 27 -15 -4 -8 -1 -15 6 -15 6 0 14 9 17 20 3
11 8 20 12 21 58 5 79 4 75 -3 -3 -4 7 -8 21 -8 20 0 26 4 21 15 -3 9 1 18 9
20 51 16 49 14 29 31 -19 15 -19 15 1 8 11 -4 33 -8 49 -9 17 -1 32 -7 34 -13
2 -7 19 -12 38 -12 20 0 34 -5 34 -12 0 -7 19 -25 43 -41 36 -24 38 -27 15
-23 -14 2 -35 9 -45 14 -10 5 -23 7 -30 5 -6 -2 -14 0 -17 5 -8 13 -86 4 -102
-12 -9 -9 -33 -15 -62 -14 -31 0 -64 -9 -99 -26 -29 -14 -59 -26 -67 -26 -7 0
-19 -7 -26 -15 -15 -18 -35 -15 -35 6 0 8 -12 15 -27 17 -19 2 -30 -3 -38 -19
-8 -14 -8 -19 -1 -15 6 4 11 0 11 -8 0 -9 -8 -16 -19 -16 -10 0 -31 -7 -47
-14 -15 -8 -31 -13 -36 -10 -14 9 11 33 38 36 49 6 28 23 -29 24 -42 1 -57 -3
-53 -12 13 -34 -102 -13 -123 23 -9 16 -10 15 -8 -4 1 -13 4 -23 8 -23 4 0 24
-7 45 -16 l39 -17 -29 -12 c-20 -8 -40 -10 -60 -4 -37 11 -48 2 -22 -17 14 -9
17 -17 10 -24 -12 -12 -66 4 -106 32 -14 10 -29 18 -33 18 -4 0 -14 8 -22 18
-13 15 -14 15 -8 -10 6 -33 8 -32 -38 -13 -42 18 -62 40 -22 25 37 -14 40 -13
20 10 -19 21 -45 27 -45 10 0 -5 -4 -10 -10 -10 -5 0 -10 10 -10 23 0 13 -6
29 -12 37 -11 12 -10 12 4 2 29 -23 30 5 1 29 -16 12 -20 19 -10 16 21 -8 22
2 1 31 -18 26 -12 28 22 6 13 -9 26 -15 28 -13 1 2 11 15 20 29 l18 25 -8 -25
c-11 -39 -10 -52 4 -57 9 -4 11 2 6 21 -5 20 -2 26 10 26 9 0 16 8 17 18 0 16
1 15 12 -2 7 -10 26 -34 44 -53 31 -33 32 -34 43 -14 7 14 7 21 0 22 -5 1 -15
2 -22 3 -7 0 -15 15 -18 32 -4 17 -10 36 -14 42 -4 7 -3 12 3 12 6 0 15 -9 21
-20 21 -38 45 -24 40 24 -2 18 -1 18 18 0 10 -11 22 -27 25 -36 4 -10 11 -18
17 -18 13 0 13 27 -1 35 -6 4 -8 14 -4 23 3 8 0 19 -7 24 -10 8 -10 9 1 6 8
-2 25 6 39 19 25 23 25 24 6 38 -10 8 -15 15 -10 15 18 0 86 -23 86 -31 0 -4
9 -5 20 -2 15 4 17 9 10 23 -6 10 -10 21 -10 24 0 10 39 6 45 -5z m1250 -97
c-7 -7 -45 29 -45 41 0 6 11 0 25 -13 14 -13 23 -26 20 -28z m1180 18 c3 -5
-4 -10 -17 -9 -13 0 -34 -2 -48 -6 l-25 -7 25 15 c30 18 57 21 65 7z m-945
-10 c0 -5 -2 -10 -4 -10 -3 0 -8 5 -11 10 -3 6 -1 10 4 10 6 0 11 -4 11 -10z
m48 -45 c-3 -3 -9 2 -12 12 -6 14 -5 15 5 6 7 -7 10 -15 7 -18z m-728 -36 c18
-15 20 -19 7 -15 -10 3 -29 6 -42 6 -12 0 -25 7 -29 15 -8 23 34 19 64 -6z
m45 11 c3 -5 -3 -10 -14 -10 -11 0 -23 5 -26 10 -3 6 3 10 14 10 11 0 23 -4
26 -10z m-213 -12 c2 -6 22 -12 44 -13 50 -3 47 -2 61 -23 10 -17 8 -18 -15
-14 -15 3 -32 9 -39 14 -7 5 -17 7 -22 3 -6 -3 -22 5 -36 19 -18 18 -21 26
-11 26 8 0 16 -5 18 -12z m928 -9 c0 -6 -4 -7 -10 -4 -5 3 -10 11 -10 16 0 6
5 7 10 4 6 -3 10 -11 10 -16z m-1020 -64 c7 -8 20 -15 29 -15 9 0 23 -5 31
-11 13 -9 -30 -9 -119 1 -3 0 0 5 6 11 8 8 17 8 32 0 14 -8 21 -8 21 -1 0 5
-6 10 -14 10 -8 0 -18 5 -21 10 -10 16 21 12 35 -5z m-947 -136 c23 -31 32
-37 43 -29 7 7 19 8 25 4 8 -4 9 -3 5 4 -4 7 -1 12 8 12 9 0 16 -8 16 -19 0
-11 5 -23 10 -26 6 -3 10 -10 10 -16 0 -13 -44 -11 -58 3 -6 6 -15 8 -19 3 -5
-4 -2 -10 5 -12 6 -3 12 -9 12 -14 0 -19 -41 12 -67 52 -20 31 -29 37 -39 28
-11 -9 -14 -4 -14 30 0 37 2 40 18 30 9 -6 30 -29 45 -50z m617 26 c-7 -8 -16
-12 -21 -9 -15 9 -69 -26 -69 -46 0 -30 -39 -50 -97 -50 -31 0 -53 4 -53 11 0
5 5 7 11 4 6 -4 10 -1 8 6 -3 29 2 37 33 43 17 3 39 12 47 19 23 20 136 50
150 40 2 -1 -2 -9 -9 -18z m-222 -7 c-3 -7 -19 -13 -36 -14 -38 -2 -41 3 -9
16 32 13 49 12 45 -2z m-632 -35 c-4 -10 -4 -14 0 -10 4 4 16 0 26 -10 11 -9
18 -11 18 -5 0 7 5 12 10 12 6 0 10 -9 10 -19 0 -11 5 -23 10 -26 6 -4 7 -11
4 -17 -4 -5 3 -23 15 -39 11 -15 21 -32 21 -37 0 -6 9 -12 20 -15 13 -3 18
-11 14 -20 -3 -10 3 -20 15 -27 17 -9 19 -14 11 -31 -6 -11 -15 -17 -21 -14
-14 9 -11 27 4 20 6 -4 -1 5 -17 19 -17 14 -33 23 -38 20 -11 -7 -10 -34 1
-34 5 0 11 -9 14 -21 5 -20 5 -20 -13 -4 -10 9 -24 31 -31 48 -7 18 -22 42
-33 55 -12 13 -20 25 -18 28 7 13 0 25 -13 20 -8 -3 -15 -1 -15 3 0 5 -3 17
-7 27 -5 13 -3 16 9 11 10 -3 19 1 23 10 5 15 -5 27 -29 36 -10 3 -1 37 10 37
3 0 3 -8 0 -17z m834 -3 c0 -5 -5 -10 -11 -10 -5 0 -7 5 -4 10 3 6 8 10 11 10
2 0 4 -4 4 -10z m2420 3 c-1 -18 -19 -35 -29 -28 -9 5 -7 11 6 21 21 16 23 16
23 7z m-3015 -61 c36 -32 49 -51 46 -66 -4 -24 -20 -38 -36 -28 -5 3 -4 -2 4
-11 12 -15 9 -21 -11 -18 -4 0 -18 -3 -32 -8 -18 -8 -28 -6 -40 8 -9 10 -16
21 -16 25 0 4 -12 22 -26 41 -19 25 -23 38 -16 52 5 10 7 24 5 31 -7 19 35 14
46 -5 5 -10 13 -15 17 -10 4 4 -1 16 -11 27 -18 20 -18 21 1 14 10 -4 42 -28
69 -52z m2842 42 c-3 -3 -12 -4 -19 -1 -8 3 -5 6 6 6 11 1 17 -2 13 -5z
m-2701 -19 c10 -8 15 -14 9 -14 -5 0 -19 6 -29 14 -11 8 -15 15 -10 15 6 0 19
-7 30 -15z m2755 -3 c-7 -2 -18 1 -23 6 -8 8 -4 9 13 5 13 -4 18 -8 10 -11z
m-721 -16 c0 -11 -19 -15 -25 -6 -3 5 1 10 9 10 9 0 16 -2 16 -4z m50 -30 c0
-3 -4 -8 -10 -11 -5 -3 -10 -1 -10 4 0 6 5 11 10 11 6 0 10 -2 10 -4z m870
-136 c6 -11 7 -20 2 -20 -10 0 -32 21 -32 32 0 16 19 8 30 -12z m-950 -91 c28
-26 50 -39 61 -36 10 3 18 2 17 -2 -2 -20 4 -29 23 -34 16 -4 20 -11 16 -27
-4 -16 1 -23 20 -31 13 -5 29 -6 35 -3 6 4 8 -1 4 -13 -6 -18 -1 -21 35 -27
30 -5 39 -10 35 -21 -4 -12 4 -15 37 -15 31 0 45 -5 54 -19 7 -11 20 -19 30
-18 23 1 109 -49 117 -68 3 -8 10 -15 17 -15 6 0 24 -12 40 -27 35 -34 59
-111 64 -204 2 -36 8 -75 13 -86 13 -24 22 -91 27 -203 2 -47 7 -101 10 -120
3 -19 8 -61 10 -93 2 -32 8 -64 14 -71 6 -7 9 -15 6 -18 -3 -3 11 -40 31 -84
77 -169 84 -191 84 -248 0 -76 -43 -156 -84 -156 -7 0 -34 15 -61 33 -106 70
-127 82 -143 79 -15 -3 -102 27 -116 40 -20 17 -38 9 -31 -13 7 -20 5 -22 -30
-16 -32 5 -36 4 -30 -11 12 -32 10 -37 -13 -34 -13 2 -30 -2 -37 -8 -8 -7 -22
-10 -30 -6 -8 3 -15 1 -15 -5 0 -5 -6 -9 -12 -8 -7 1 -26 -3 -43 -10 -16 -7
-42 -11 -57 -9 -16 3 -29 -1 -32 -9 -3 -7 -21 -13 -41 -13 -19 0 -35 -4 -35
-10 0 -5 -7 -10 -15 -10 -8 0 -30 -9 -50 -20 -20 -11 -51 -20 -70 -20 -19 0
-35 -4 -35 -10 0 -5 5 -10 10 -10 6 0 10 -4 10 -10 0 -5 -9 -10 -19 -10 -11 0
-26 -7 -35 -15 -8 -8 -25 -15 -38 -15 -14 0 -33 -8 -44 -17 -10 -10 -30 -19
-43 -21 -14 -1 -39 -9 -55 -18 -52 -26 -173 -38 -384 -38 -179 -1 -205 1 -216
16 -8 11 -35 19 -85 24 -58 5 -75 11 -78 24 -5 18 -43 40 -68 40 -8 0 -22 8
-32 19 -10 10 -34 21 -53 24 -53 8 -182 42 -205 54 -11 6 -25 8 -31 6 -7 -2
-28 5 -48 17 -28 15 -42 18 -56 10 -15 -8 -18 -7 -14 4 4 11 -3 12 -34 6 -21
-3 -45 -10 -53 -14 -8 -4 -3 2 11 13 20 17 22 21 8 21 -10 0 -18 4 -18 9 0 5
-16 9 -36 9 -20 0 -40 4 -46 10 -13 13 -165 -64 -208 -106 -19 -19 -28 -32
-18 -29 11 4 15 1 14 -11 -2 -9 -7 -17 -12 -17 -5 0 -19 -9 -31 -20 -17 -14
-23 -30 -23 -61 0 -38 -2 -42 -31 -48 -38 -7 -109 -8 -109 -1 0 3 7 16 15 28
15 23 30 113 39 232 6 79 29 173 51 213 22 40 39 66 46 72 21 19 27 58 32 227
3 72 8 137 13 145 5 7 11 39 15 72 5 44 14 65 36 90 30 32 63 96 63 121 0 8
13 22 30 32 16 9 30 25 30 33 0 18 35 54 63 63 9 4 17 11 17 17 0 6 4 9 9 5 6
-3 15 4 21 15 6 11 17 20 26 20 8 0 19 10 23 23 5 12 23 37 40 55 17 18 31 35
31 38 0 25 119 114 153 114 10 0 17 4 17 9 0 5 8 12 18 15 21 8 107 55 142 78
14 9 40 19 58 23 28 6 32 4 32 -14 0 -21 24 -29 35 -11 9 15 65 38 127 51 52
11 60 10 77 -5 12 -11 21 -14 26 -7 4 7 15 1 28 -14 22 -25 23 -25 47 -8 14
10 34 18 45 19 38 2 43 4 48 24 3 11 11 20 19 19 10 0 10 -2 1 -6 -27 -10 -11
-21 30 -19 23 2 50 -2 60 -8 13 -8 25 -7 49 7 21 12 33 14 38 7 4 -7 15 -4 31
8 13 11 37 22 52 26 19 4 27 12 23 21 -5 15 18 11 42 -8 8 -6 12 -6 12 2 0 6
9 11 19 11 11 0 21 6 24 13 3 9 7 9 20 -2 14 -11 20 -11 33 -1 12 11 18 10 31
-3 12 -12 21 -13 39 -5 20 10 27 7 48 -15 30 -32 46 -34 46 -7 0 11 7 20 15
20 8 0 15 6 15 13 0 8 4 7 10 -3 5 -8 10 -12 10 -8 0 4 12 3 26 -2 21 -8 25
-8 21 4 -6 14 18 56 32 56 4 0 27 -18 51 -41z m-2280 6 c11 -13 10 -14 -4 -9
-9 3 -16 10 -16 15 0 13 6 11 20 -6z m-40 -41 c8 -9 11 -15 5 -12 -5 3 -27 12
-47 22 -21 9 -38 19 -38 21 0 9 66 -16 80 -31z m2120 6 c0 -5 -2 -10 -4 -10
-3 0 -8 5 -11 10 -3 6 -1 10 4 10 6 0 11 -4 11 -10z m2004 -180 c36 -97 66
-183 66 -191 0 -27 -42 -119 -54 -119 -32 0 -216 154 -216 180 0 10 107 296
116 312 11 17 20 -2 88 -182z m-4504 123 c-11 -17 -11 -17 -6 0 3 10 6 24 7
30 0 9 2 9 5 0 3 -7 0 -20 -6 -30z m510 -57 c0 -2 -7 -7 -16 -10 -8 -3 -12 -2
-9 4 6 10 25 14 25 6z m-524 -83 c-10 -10 -19 5 -10 18 6 11 8 11 12 0 2 -7 1
-15 -2 -18z m4474 -317 c34 -19 39 -26 23 -26 -11 0 -41 19 -65 43 -24 23 -35
34 -24 25 12 -9 41 -28 66 -42z m-75 -11 c29 -24 65 -49 80 -55 29 -11 29 -16
-7 -99 l-19 -44 -26 54 c-15 30 -53 80 -87 111 -58 57 -59 58 -35 67 37 15 38
14 94 -34z m-213 -219 c-5 -6 -12 -23 -16 -38 -4 -19 -13 -28 -26 -28 -25 0
-25 7 -1 63 11 25 16 49 13 54 -4 5 3 -2 16 -15 15 -16 20 -28 14 -36z m-4503
-45 c11 -7 10 -18 -7 -64 -33 -87 -52 -352 -32 -450 7 -34 16 -91 20 -126 8
-62 7 -67 -21 -106 -71 -99 -85 -264 -43 -517 l5 -33 -15 27 c-33 57 -75 207
-87 310 -15 133 -2 305 42 541 30 163 82 375 100 409 11 20 18 22 38 9z m404
-48 c10 -17 20 -41 22 -52 2 -12 12 -29 21 -38 16 -17 15 -18 -27 -31 -24 -7
-63 -15 -86 -19 -39 -5 -43 -4 -53 21 -5 15 -10 34 -10 42 0 20 90 116 104
111 6 -2 19 -17 29 -34z m5439 -192 c-5 -33 7 -31 -287 -49 -140 -9 -162 -5
-150 25 2 6 -1 14 -8 16 -22 8 37 16 193 25 275 16 257 17 252 -17z m-574 -36
c1 -14 1 -25 -1 -26 -10 -5 -414 -26 -419 -23 -5 3 -8 16 -8 29 0 22 5 24 73
29 97 8 166 12 267 14 85 2 86 2 88 -23z m-1248 -725 c0 -5 -9 -10 -19 -10
-11 0 -23 5 -26 10 -4 6 5 10 19 10 14 0 26 -4 26 -10z m-2732 -15 c3 -3 -9
-5 -26 -5 -18 0 -32 5 -32 10 0 10 47 6 58 -5z m1467 6 c-28 -11 -111 -23
-103 -15 9 9 67 22 98 22 22 1 23 0 5 -7z m695 -1 c0 -5 -12 -10 -27 -10 -128
-1 -652 -58 -695 -75 -11 -4 -18 -3 -18 4 0 6 -12 11 -27 12 -49 1 86 27 232
44 282 32 535 44 535 25z m-2072 -7 c-10 -2 -26 -2 -35 0 -10 3 -2 5 17 5 19
0 27 -2 18 -5z m130 0 c-21 -2 -55 -2 -75 0 -21 2 -4 4 37 4 41 0 58 -2 38 -4z
m85 0 c-7 -2 -21 -2 -30 0 -10 3 -4 5 12 5 17 0 24 -2 18 -5z m97 -3 c21 -7
18 -8 -18 -9 -26 -1 -41 3 -37 9 7 11 19 11 55 0z m185 -10 l30 -8 -30 0 c-16
-1 -48 3 -70 7 l-40 9 40 0 c22 0 54 -4 70 -8z m1900 -17 c70 -33 39 -39 -95
-18 -105 17 -108 19 -30 25 41 4 78 7 82 8 4 1 23 -6 43 -15z m-1885 -34 c45
-10 159 -14 373 -14 206 0 294 -3 265 -9 -23 -5 -159 -9 -300 -10 -142 0 -258
-5 -258 -10 0 -4 -7 -6 -15 -3 -44 18 -410 34 -792 36 -114 1 -155 16 -65 24
107 10 728 -1 792 -14z m1460 2 c0 -15 -24 -19 -200 -30 -238 -16 -227 -13
-288 -77 -38 -40 -51 -61 -46 -73 4 -9 9 -28 12 -44 2 -15 16 -36 30 -47 27
-22 47 -27 36 -8 -4 7 -3 8 5 4 6 -4 9 -11 6 -16 -3 -5 -1 -11 5 -15 5 -3 10
3 10 13 0 23 68 46 120 40 45 -4 38 14 -13 32 -23 8 -48 19 -55 23 -19 13 -14
66 9 103 29 47 49 44 49 -5 0 -98 139 -162 220 -102 14 10 41 41 60 70 33 50
35 51 45 29 5 -13 16 -28 23 -33 8 -6 15 -30 16 -54 2 -39 5 -44 37 -56 19 -7
49 -18 67 -25 31 -12 35 -11 64 16 38 37 71 88 87 137 7 21 23 50 36 65 19 23
30 27 59 24 68 -8 85 -55 93 -254 7 -160 0 -191 -68 -329 -40 -82 -122 -133
-279 -176 -109 -29 -474 -27 -597 3 -17 5 -24 3 -20 -3 21 -33 266 -57 435
-42 351 30 454 92 521 314 48 161 60 227 58 343 -2 97 0 109 10 85 17 -40 16
-216 -3 -313 -20 -109 -68 -246 -102 -295 -70 -101 -309 -169 -597 -169 -314
0 -453 66 -544 259 -79 166 -128 380 -101 444 33 81 135 115 450 149 198 22
350 27 350 13z m-722 -8 c-10 -2 -26 -2 -35 0 -10 3 -2 5 17 5 19 0 27 -2 18
-5z m-1509 -37 c13 -11 36 -12 121 -5 112 10 360 2 394 -11 13 -6 -39 -10
-134 -11 -141 -3 -249 -6 -291 -8 -9 -1 -21 -11 -26 -23 -11 -23 -11 -23 -22
6 -11 28 -12 28 -31 11 -16 -14 -23 -16 -32 -7 -7 7 -8 12 -2 12 5 0 2 5 -6
10 -13 8 -12 10 4 10 20 0 20 0 0 15 -13 10 -15 14 -5 15 8 0 22 -6 30 -14z
m-253 -31 c-8 -8 -24 -15 -37 -15 -18 0 -19 2 -9 15 7 8 23 15 37 15 22 0 23
-2 9 -15z m150 7 c6 -4 13 -14 16 -23 4 -11 15 -15 30 -13 13 3 30 0 37 -5 13
-8 11 -13 -7 -28 -16 -12 -24 -33 -28 -68 -6 -45 -3 -54 21 -83 19 -22 35 -32
55 -32 25 0 31 5 39 38 6 20 11 42 11 48 0 7 11 9 25 6 30 -5 60 18 69 53 13
51 86 35 124 -27 24 -39 68 -67 108 -69 74 -5 128 30 159 104 8 20 19 37 23
37 15 0 32 -24 32 -45 0 -12 5 -26 11 -32 9 -9 0 -19 -35 -40 -25 -15 -46 -31
-46 -35 0 -3 32 -8 71 -10 61 -3 72 0 81 16 7 13 13 15 21 7 18 -18 29 -13 25
12 -2 16 -9 21 -26 20 -26 -3 -29 12 -5 26 16 8 16 11 0 48 -10 21 -34 49 -53
63 -36 24 -36 24 -12 33 44 16 251 -25 305 -60 13 -9 31 -29 39 -44 15 -31 20
-134 5 -110 -7 11 -14 -2 -26 -45 -33 -117 -59 -190 -91 -254 -48 -97 -64
-139 -54 -145 29 -18 130 216 165 379 3 15 8 26 11 24 13 -13 -37 -205 -85
-326 -12 -30 -17 -51 -12 -48 5 3 21 36 37 73 31 77 50 104 40 58 -14 -62 -98
-215 -134 -245 -54 -45 -54 -36 0 21 26 28 48 58 48 67 0 9 -22 -8 -51 -41
-92 -103 -220 -147 -479 -162 -179 -10 -429 23 -518 69 -65 34 -122 135 -172
311 -40 137 -53 222 -48 310 3 63 7 78 27 97 22 21 23 21 15 3 -18 -41 -8
-216 19 -328 28 -114 86 -253 114 -274 26 -20 57 -17 48 5 -24 57 -60 457 -53
593 3 62 4 64 33 70 43 9 59 10 71 1z m1122 -97 c17 -36 15 -41 -8 -20 -20 18
-27 45 -12 45 5 0 14 -11 20 -25z m3796 -15 l0 -35 -55 -3 c-43 -3 -52 -1 -41
9 20 21 14 29 -23 29 -19 0 -35 4 -35 8 0 15 55 30 105 29 l50 -2 -1 -35z
m-4785 -30 c17 -39 19 -55 11 -70 -31 -57 -95 28 -71 93 16 41 36 33 60 -23z
m4564 14 c-8 -46 2 -70 23 -54 22 19 45 -4 24 -24 -20 -18 -67 -29 -75 -16 -4
6 -13 5 -24 -2 -15 -9 -24 -7 -49 13 -62 48 -29 115 57 116 l49 1 -5 -34z
m-5007 -11 c-10 -10 -19 5 -10 18 6 11 8 11 12 0 2 -7 1 -15 -2 -18z m2244 6
c0 -6 -4 -7 -10 -4 -5 3 -10 11 -10 16 0 6 5 7 10 4 6 -3 10 -11 10 -16z
m2984 -54 c-1 -16 -33 -18 -65 -5 -43 18 -35 27 19 20 26 -3 47 -9 46 -15z
m-3535 -48 c35 -17 60 -65 83 -155 23 -90 98 -223 183 -324 53 -64 58 -67 98
-67 23 0 61 -6 83 -14 78 -28 197 -41 369 -41 292 1 518 61 605 160 30 35 46
65 112 217 12 26 26 47 31 47 15 0 0 -190 -29 -375 -14 -88 -27 -177 -31 -197
-3 -21 -8 -36 -12 -34 -3 2 -7 -7 -8 -21 0 -14 -7 -29 -13 -33 -7 -4 -10 -12
-6 -18 7 -12 -18 -64 -27 -55 -4 3 -4 -11 -2 -31 3 -20 1 -36 -3 -36 -5 0 -14
-16 -22 -35 -8 -19 -18 -35 -23 -35 -5 0 -7 -9 -4 -20 4 -17 2 -20 -14 -15
-16 5 -19 1 -19 -24 0 -24 -4 -31 -20 -31 -11 0 -20 -7 -20 -16 0 -9 -5 -12
-12 -8 -10 6 -10 4 0 -8 13 -16 7 -48 -9 -48 -5 0 -9 -7 -9 -15 0 -8 -9 -15
-20 -15 -11 0 -20 -5 -20 -11 0 -5 -5 -7 -10 -4 -6 3 -14 -5 -20 -19 -6 -16
-17 -26 -29 -26 -22 0 -34 -24 -26 -51 4 -12 1 -21 -9 -25 -9 -3 -16 -16 -16
-29 0 -12 -7 -36 -15 -51 -8 -16 -15 -37 -15 -46 0 -20 -21 -70 -33 -79 -5 -3
-4 -23 2 -44 8 -29 8 -36 -1 -27 -17 17 -28 15 -28 -4 0 -9 9 -18 21 -21 18
-5 20 -11 15 -41 -9 -56 -55 -142 -82 -152 -15 -6 -24 -18 -24 -30 0 -33 -49
-91 -74 -88 -16 2 -23 -5 -31 -29 -6 -18 -24 -49 -40 -69 -30 -37 -43 -57 -64
-104 -34 -73 -65 -114 -154 -204 -78 -78 -101 -96 -108 -85 -8 11 -9 10 -7 -6
2 -12 -2 -19 -9 -17 -7 1 -13 -2 -13 -7 0 -11 -34 -24 -70 -27 -14 -1 -26 -3
-27 -4 -2 -1 -7 -3 -12 -4 -5 0 -12 -4 -16 -7 -9 -10 -45 2 -45 15 0 6 -4 5
-9 -3 -5 -8 -20 -15 -32 -16 -13 -1 -25 -7 -27 -13 -2 -7 -10 -12 -18 -12 -9
0 -25 -5 -36 -11 -30 -16 -118 -17 -118 -2 0 9 -7 10 -24 3 -13 -5 -26 -7 -29
-4 -2 3 -17 6 -33 9 -16 2 -43 7 -60 10 -19 4 -34 3 -38 -4 -4 -6 -13 -7 -24
-2 -56 28 -77 35 -110 34 -20 -1 -43 4 -50 10 -8 6 -32 10 -54 8 -39 -3 -40
-2 -34 23 7 29 -5 34 -24 11 -11 -13 -15 -13 -21 -3 -5 7 -13 14 -19 14 -5 1
-15 2 -21 3 -5 0 -7 6 -3 12 4 7 1 10 -7 7 -8 -3 -22 6 -32 18 -10 13 -24 21
-32 17 -8 -3 -15 -1 -15 5 0 5 -21 29 -46 53 -25 24 -57 64 -72 89 -14 25 -34
54 -44 64 -10 11 -18 25 -18 31 0 7 -10 23 -22 37 -13 14 -24 31 -26 38 -1 6
-18 27 -37 45 -19 18 -35 37 -35 43 0 6 -6 17 -12 24 -7 8 -18 23 -25 33 -7
11 -38 63 -70 115 -65 107 -79 147 -57 171 16 18 19 65 4 74 -5 3 -10 18 -10
32 0 18 -4 24 -15 19 -11 -4 -15 2 -15 20 0 13 -7 27 -15 30 -8 3 -17 15 -21
26 -3 11 -9 17 -12 13 -3 -3 -11 4 -17 16 -9 16 -9 30 1 58 14 41 6 51 -44 54
-24 2 -27 7 -30 40 -3 29 -7 37 -18 33 -11 -4 -13 0 -8 19 4 15 2 25 -5 25
-18 0 -12 39 9 60 11 11 20 25 20 30 0 13 -60 -30 -61 -44 -1 -6 -2 -15 -4
-21 -1 -5 -3 -17 -4 -25 -1 -10 -4 -11 -9 -4 -4 6 -15 14 -25 17 -11 4 -21 16
-24 26 -3 13 -10 18 -21 14 -16 -7 -16 -6 5 45 3 6 -2 12 -11 12 -12 0 -16 10
-16 41 0 31 -3 40 -14 36 -11 -4 -17 11 -27 60 -9 45 -18 67 -30 70 -10 3 -14
12 -12 26 4 18 -46 238 -74 332 -5 17 -1 16 30 -8 91 -69 233 -100 472 -101
219 -1 381 18 398 45 7 11 15 19 20 19 4 0 28 10 52 21 25 12 49 19 52 15 4
-4 -3 -9 -15 -13 -24 -6 -30 -23 -8 -23 31 0 216 156 216 182 0 6 28 76 62
157 78 184 141 271 197 271 20 0 47 -6 60 -13z m-1679 -77 c4 -43 0 -57 -10
-35 -12 27 -12 95 -1 75 5 -8 10 -26 11 -40z m4154 9 c-10 -16 -24 -9 -24 12
0 18 2 19 15 9 8 -7 12 -16 9 -21z m195 -64 c-10 -9 -169 -14 -174 -4 -4 5 31
9 86 9 51 0 90 -2 88 -5z m787 -81 l61 -6 6 -112 c3 -61 3 -128 -1 -149 l-7
-38 -73 80 c-92 101 -175 147 -247 137 -37 -6 -57 -18 -108 -65 -34 -32 -73
-62 -87 -66 -30 -9 -50 -24 -50 -37 0 -6 6 -8 13 -5 53 20 57 19 57 -10 0 -45
-11 -54 -52 -43 l-35 10 -8 140 c-4 76 -4 144 0 150 4 7 51 10 130 8 69 -1
127 1 130 4 8 8 197 9 271 2z m-1760 -364 c31 -11 31 -13 18 -38 -17 -33 -18
-59 -1 -65 8 -3 7 -10 -7 -26 -24 -27 -46 -28 -39 -1 4 17 0 20 -23 20 -22 0
-25 -3 -14 -10 8 -5 12 -11 9 -14 -15 -15 -69 59 -69 95 0 35 52 73 79 59 9
-5 30 -14 47 -20z m1526 0 c39 -39 29 -51 -12 -16 -17 14 -36 26 -41 26 -5 0
-9 5 -9 10 0 20 32 9 62 -20z m315 -43 c13 -17 39 -49 58 -69 41 -43 46 -64
13 -53 -13 4 -57 12 -100 17 -70 10 -78 9 -105 -10 -29 -20 -29 -20 -41 -1 -7
10 -12 37 -12 59 0 32 4 40 18 40 10 0 33 11 52 25 51 35 90 33 117 -8z
m-5463 -14 c38 -32 123 -73 153 -73 25 0 37 -34 49 -132 l7 -58 -30 0 c-38 0
-134 84 -162 143 -30 64 -61 147 -55 147 3 0 20 -12 38 -27z m3736 12 c0 -17
-4 -18 -37 -9 -33 9 -28 24 7 24 20 0 30 -5 30 -15z m28 -65 c2 -39 1 -40 -32
-40 -32 0 -76 27 -76 48 0 12 29 24 41 16 5 -3 19 2 31 10 28 20 34 15 36 -34z
m1129 -106 c-3 -3 -12 -4 -19 -1 -8 3 -5 6 6 6 11 1 17 -2 13 -5z m-1408 -81
c1 -21 -17 -15 -24 7 -9 27 6 50 16 24 4 -10 8 -25 8 -31z m-3028 -147 c-5
-51 -4 -72 7 -87 8 -12 16 -41 18 -66 2 -30 11 -53 26 -68 41 -41 50 -56 55
-88 2 -18 13 -44 24 -59 10 -15 19 -32 19 -37 0 -5 9 -25 20 -43 11 -19 21
-43 23 -53 14 -73 21 -96 33 -106 20 -16 18 -31 -15 -96 -16 -32 -41 -91 -54
-131 -14 -41 -29 -78 -33 -82 -5 -5 -43 -17 -84 -28 -41 -11 -106 -33 -145
-50 -63 -28 -204 -67 -212 -59 -1 2 2 156 7 343 8 281 7 355 -5 428 -8 49 -17
97 -21 108 -10 32 104 122 236 187 8 4 30 28 49 53 34 46 35 46 47 23 8 -15 9
-45 5 -89z m3142 102 c31 -15 37 -39 7 -31 -11 3 -27 0 -36 -7 -12 -11 -18
-10 -32 3 -15 16 -15 18 3 32 25 18 25 18 58 3z m-108 -18 c8 0 16 -4 19 -9 5
-7 -14 -8 -46 -2 -4 0 -4 9 -1 18 4 11 8 12 11 5 2 -7 10 -12 17 -12z m-3397
-29 c8 -4 19 -19 26 -32 6 -13 24 -30 39 -37 l28 -14 -43 -34 c-36 -28 -44
-31 -46 -16 -2 9 -9 45 -16 80 -13 63 -12 68 12 53z m-32 -458 c-9 -116 -8
-113 -17 -113 -12 0 -19 29 -8 35 5 4 7 11 3 16 -7 12 -14 131 -8 141 3 5 12
8 21 8 14 0 15 -12 9 -87z m719 27 c3 -5 1 -10 -4 -10 -6 0 -11 5 -11 10 0 6
2 10 4 10 3 0 8 -4 11 -10z m4148 -122 c9 -7 20 -34 23 -59 6 -42 4 -48 -15
-54 -31 -10 -79 4 -86 24 -6 21 19 87 37 94 20 8 23 8 41 -5z m-4879 -146 c-4
-56 -11 -102 -16 -102 -9 0 -9 197 0 213 2 5 8 5 13 0 5 -5 6 -54 3 -111z
m671 53 c0 -10 -5 -20 -11 -22 -13 -4 -27 24 -18 38 9 15 29 4 29 -16z m147
-87 c-7 -7 -12 -8 -12 -2 0 6 3 14 7 17 3 4 9 5 12 2 2 -3 -1 -11 -7 -17z
m4173 -29 c0 -7 -8 -15 -17 -17 -18 -3 -25 18 -11 32 10 10 28 1 28 -15z m-45
-49 c0 -33 -23 -42 -34 -12 -3 9 -9 23 -12 30 -4 8 3 12 20 12 22 0 26 -4 26
-30z m-4957 -40 c-7 -28 -13 -25 -13 6 0 14 4 23 9 20 5 -3 7 -15 4 -26z
m4890 -61 c15 -22 27 -52 27 -66 0 -25 -2 -25 -46 -19 -25 3 -50 8 -55 12 -16
9 -10 49 11 72 11 12 20 26 20 32 0 21 17 9 43 -31z m592 -253 c19 -8 35 -17
35 -20 0 -5 -71 22 -79 30 -9 8 11 4 44 -10z m-928 -97 c8 -8 20 -9 40 -2 19
7 34 7 46 -1 12 -7 20 -8 25 -1 10 14 42 18 42 6 0 -7 9 -7 26 -1 19 7 23 7
18 -2 -5 -8 -2 -9 9 -5 10 4 20 0 26 -10 7 -14 10 -13 16 6 3 11 11 18 17 15
6 -4 5 -10 -3 -16 -9 -6 -6 -7 11 -2 34 11 74 8 78 -5 2 -6 12 -11 23 -11 22
0 23 -4 79 -165 64 -187 120 -368 115 -373 -2 -2 0 -14 6 -25 8 -14 8 -18 0
-13 -6 4 0 -14 14 -40 14 -26 25 -56 25 -68 0 -20 0 -20 -16 2 -8 12 -13 26
-10 31 8 13 -22 7 -35 -6 -15 -15 -53 -4 -39 12 7 8 5 12 -5 12 -7 0 -14 -3
-13 -6 0 -3 0 -13 -1 -21 -2 -11 -5 -9 -11 5 -7 18 -70 64 -70 51 0 -12 44
-45 53 -39 6 3 7 1 3 -5 -11 -18 -34 -14 -58 11 -13 12 -27 21 -31 19 -5 -1
-7 3 -4 10 2 7 10 12 16 10 7 -1 4 8 -6 22 -18 26 -33 33 -33 17 0 -5 7 -12
16 -15 8 -3 12 -10 9 -16 -4 -6 -10 -8 -15 -5 -5 3 -12 0 -16 -6 -4 -8 -3 -9
4 -5 7 4 12 2 12 -3 0 -6 -6 -11 -14 -11 -8 0 -18 -5 -22 -12 -4 -6 -3 -8 3
-5 6 4 14 0 17 -8 4 -12 2 -13 -13 -6 -10 6 -21 7 -25 3 -4 -3 -4 2 0 12 6 16
4 18 -13 14 -24 -6 -51 36 -31 48 7 5 8 2 3 -7 -6 -11 -5 -11 5 -2 20 19 3 33
-24 20 -18 -9 -22 -16 -16 -28 6 -11 5 -16 -6 -16 -8 0 -13 7 -12 16 2 9 -3
15 -9 13 -7 -1 -13 3 -13 9 0 8 -4 8 -14 0 -10 -8 -16 -9 -21 -1 -9 14 4 32
17 24 7 -4 8 -2 4 4 -4 7 -14 12 -22 12 -8 0 -12 -4 -9 -10 3 -5 -2 -10 -12
-11 -11 0 -13 -3 -5 -6 7 -2 17 -14 23 -25 9 -18 8 -18 -10 -9 -16 9 -22 8
-31 -6 -9 -15 -11 -15 -7 -2 4 13 1 15 -14 12 -10 -3 -19 -1 -19 4 0 5 -10 10
-22 10 -13 1 -24 7 -26 13 -2 5 -13 10 -25 10 l-22 -1 23 -12 c18 -11 20 -15
10 -27 -11 -12 -10 -12 3 -2 12 9 20 8 36 -3 11 -8 24 -11 28 -7 4 4 6 1 3 -7
-2 -8 -11 -15 -20 -17 -10 -1 -15 3 -12 11 4 9 -1 13 -12 11 -10 -2 -20 -9
-22 -17 -3 -11 -1 -11 7 1 8 11 11 11 11 2 0 -7 -11 -17 -25 -22 -14 -5 -25
-12 -25 -16 0 -3 7 -3 16 0 9 3 12 2 8 -5 -3 -6 -15 -9 -25 -6 -11 3 -19 1
-19 -4 0 -5 -7 -9 -16 -9 -8 0 -13 4 -10 9 8 13 -4 42 -14 36 -5 -3 -11 -1
-15 5 -4 6 -11 7 -17 4 -7 -5 -9 0 -6 14 4 12 2 20 -2 17 -13 -8 -22 13 -26
63 -6 73 -8 81 -15 76 -6 -3 -13 21 -24 86 -7 44 -26 114 -36 133 -5 10 -7 22
-3 28 3 5 0 16 -6 24 -6 8 -9 19 -6 24 4 5 -1 49 -9 97 -8 48 -13 90 -10 92 3
3 5 0 5 -6 0 -7 3 -11 8 -11 24 4 41 -4 47 -21 3 -11 11 -20 17 -20 6 0 6 6
-2 15 -7 8 -9 22 -6 31 6 16 8 15 21 -2 9 -12 14 -14 15 -6 0 9 7 11 21 7 15
-5 19 -4 14 4 -4 8 1 10 17 6 13 -3 35 -2 48 4 33 13 34 13 47 0z m-3537 -314
c-7 -9 -15 -13 -17 -11 -7 7 7 26 19 26 6 0 6 -6 -2 -15z m1006 -170 c45 -1
91 -6 103 -10 32 -10 27 -55 -12 -100 -26 -30 -42 -39 -80 -45 -50 -7 -144 3
-190 21 -32 13 -131 124 -123 138 4 5 52 7 114 5 59 -3 144 -7 188 -9z m2454
-200 c0 -2 -9 -3 -19 -2 -11 0 -18 5 -15 9 4 6 34 0 34 -7z m55 -45 c3 -5 1
-10 -4 -10 -6 0 -11 5 -11 10 0 6 2 10 4 10 3 0 8 -4 11 -10z m49 -5 c-4 -8
-8 -15 -10 -15 -2 0 -4 7 -4 15 0 8 4 15 10 15 5 0 7 -7 4 -15z m-4684 -1079
c-7 -7 -10 13 -10 65 0 98 14 112 18 18 2 -41 -2 -77 -8 -83z"></path>
<path d="M2890 7303 c1 -28 100 -90 100 -63 0 5 -11 12 -25 16 -14 3 -31 14
-38 23 -15 21 -37 35 -37 24z"></path>
<path d="M2796 7292 c-3 -5 6 -12 20 -15 15 -3 23 0 21 7 -5 14 -33 20 -41 8z"></path>
<path d="M3090 7290 c0 -5 7 -10 15 -10 9 0 18 -7 21 -15 4 -8 14 -15 23 -15
9 0 22 -5 29 -12 6 -6 15 -8 19 -4 10 10 -37 45 -59 46 -10 0 -18 5 -18 10 0
6 -7 10 -15 10 -8 0 -15 -4 -15 -10z"></path>
<path d="M3276 7265 c25 -19 34 -19 34 0 0 10 -10 15 -27 15 -26 0 -26 -1 -7
-15z"></path>
<path d="M3345 7270 c3 -5 8 -10 11 -10 2 0 4 5 4 10 0 6 -5 10 -11 10 -5 0
-7 -4 -4 -10z"></path>
<path d="M3385 7180 c-4 -6 4 -14 17 -19 13 -5 36 -23 52 -40 33 -34 49 -40
39 -14 -14 37 -96 92 -108 73z"></path>
<path d="M3607 7173 c-4 -3 -7 -11 -7 -17 0 -6 5 -5 12 2 6 6 9 14 7 17 -3 3
-9 2 -12 -2z"></path>
<path d="M3618 7128 c7 -7 12 -21 12 -32 1 -20 1 -20 11 -3 14 23 5 47 -18 47
-13 0 -14 -3 -5 -12z"></path>
<path d="M3430 7101 c0 -17 18 -21 24 -6 3 9 0 15 -9 15 -8 0 -15 -4 -15 -9z"></path>
<path d="M3669 7098 c-8 -36 -6 -45 12 -57 27 -16 30 -12 21 24 -7 23 -30 47
-33 33z"></path>
<path d="M3819 7084 c0 -5 -2 -16 -4 -25 -2 -12 6 -19 26 -23 16 -3 41 -18 54
-33 13 -16 25 -23 25 -16 0 20 -99 116 -101 97z"></path>
<path d="M3410 7070 c0 -5 5 -10 10 -10 6 0 10 5 10 10 0 6 -4 10 -10 10 -5 0
-10 -4 -10 -10z"></path>
<path d="M3525 7050 c20 -22 31 -20 22 5 -4 8 -14 15 -23 15 -16 0 -16 -2 1
-20z"></path>
<path d="M3920 7040 c0 -5 5 -12 10 -15 6 -4 8 -10 5 -15 -3 -4 2 -13 9 -19
10 -8 16 -9 21 -1 3 6 11 8 16 5 5 -4 -2 -17 -16 -31 -24 -24 -24 -60 0 -50 8
3 11 -2 8 -15 -3 -10 0 -19 6 -19 6 0 11 -7 11 -15 0 -10 -12 -1 -32 21 l-32
36 -8 -27 c-6 -23 -2 -35 20 -61 25 -30 54 -45 51 -26 -2 16 14 52 23 52 6 0
4 7 -3 17 -12 14 -12 16 1 11 22 -7 57 70 51 116 -1 5 -13 -1 -27 -15 l-26
-24 3 35 c2 25 0 34 -10 32 -7 -1 -18 1 -25 6 -15 11 -56 13 -56 2z m56 -207
c-7 -7 -26 7 -26 19 0 6 6 6 15 -2 9 -7 13 -15 11 -17z"></path>
<path d="M4315 6950 c3 -5 10 -10 16 -10 5 0 9 5 9 10 0 6 -7 10 -16 10 -8 0
-12 -4 -9 -10z"></path>
<path d="M4447 6934 c-11 -12 3 -24 29 -24 16 0 24 5 22 13 -5 13 -40 22 -51
11z"></path>
<path d="M4244 6919 c-2 -4 -1 -14 2 -23 4 -10 1 -16 -9 -16 -8 0 -20 -7 -27
-15 -16 -20 0 -19 28 1 12 8 27 12 32 9 6 -3 10 1 10 9 0 9 5 16 11 16 6 0 8
-9 4 -20 -7 -23 3 -26 30 -6 16 11 16 15 4 32 -14 18 -76 28 -85 13z"></path>
<path d="M4511 6914 c0 -11 3 -14 6 -6 3 7 2 16 -1 19 -3 4 -6 -2 -5 -13z"></path>
<path d="M3790 6890 c0 -5 5 -10 10 -10 6 0 10 5 10 10 0 6 -4 10 -10 10 -5 0
-10 -4 -10 -10z"></path>
<path d="M4390 6880 c-13 -8 -12 -10 3 -10 9 0 17 5 17 10 0 12 -1 12 -20 0z"></path>
<path d="M4545 6870 c3 -5 8 -10 11 -10 2 0 4 5 4 10 0 6 -5 10 -11 10 -5 0
-7 -4 -4 -10z"></path>
<path d="M4490 6850 c-13 -8 -12 -10 3 -10 9 0 17 5 17 10 0 12 -1 12 -20 0z"></path>
<path d="M4430 6846 c0 -2 9 -6 20 -9 11 -3 20 -1 20 4 0 5 -9 9 -20 9 -11 0
-20 -2 -20 -4z"></path>
<path d="M4230 6826 c-6 -8 -17 -13 -23 -11 -21 8 -40 -11 -30 -30 9 -15 11
-15 26 -1 8 9 22 16 29 16 15 1 48 24 48 34 0 12 -38 6 -50 -8z"></path>
<path d="M4355 6830 c-3 -5 -15 -10 -25 -10 -22 0 -37 -19 -18 -24 7 -1 28 -8
46 -14 25 -8 39 -8 53 1 27 17 23 27 -11 27 -22 0 -28 4 -24 15 7 17 -11 21
-21 5z"></path>
<path d="M4628 6813 c7 -3 16 -2 19 1 4 3 -2 6 -13 5 -11 0 -14 -3 -6 -6z"></path>
<path d="M4575 6790 c3 -5 15 -10 26 -10 11 0 17 5 14 10 -3 6 -15 10 -26 10
-11 0 -17 -4 -14 -10z"></path>
<path d="M4510 6736 c0 -2 7 -6 15 -10 8 -3 15 -1 15 4 0 6 -7 10 -15 10 -8 0
-15 -2 -15 -4z"></path>
<path d="M4426 6691 c-11 -17 46 -23 63 -7 14 15 12 16 -21 16 -20 0 -39 -4
-42 -9z"></path>
<path d="M4553 6685 c-15 -17 -16 -25 -3 -25 5 0 14 9 20 20 12 23 1 26 -17 5z"></path>
<path d="M4496 6665 c-18 -13 -17 -14 8 -21 33 -8 45 2 25 21 -12 12 -17 12
-33 0z"></path>
<path d="M4436 6641 c-3 -5 1 -12 10 -15 20 -8 29 -1 19 13 -8 13 -22 14 -29
2z"></path>
<path d="M4276 6633 c-11 -11 -6 -23 8 -23 8 0 17 4 20 9 7 10 -19 23 -28 14z"></path>
<path d="M4350 6616 c0 -2 7 -7 16 -10 8 -3 12 -2 9 4 -6 10 -25 14 -25 6z"></path>
<path d="M4560 6549 c0 -6 8 -8 19 -4 23 7 39 -14 20 -26 -9 -6 1 -9 30 -9 31
0 42 -4 38 -13 -7 -18 83 -19 100 -1 8 7 21 10 31 7 14 -4 13 -3 -3 10 -14 11
-26 12 -44 5 -16 -5 -34 -5 -50 1 -14 6 -37 12 -51 13 -14 2 -24 9 -22 16 1 8
-11 12 -33 12 -19 0 -35 -5 -35 -11z"></path>
<path d="M4670 6454 c-30 -11 -32 -13 -10 -13 14 -1 32 3 40 9 24 15 8 17 -30
4z"></path>
<path d="M2515 7276 c10 -14 24 -26 31 -26 23 0 16 15 -17 34 l-31 18 17 -26z"></path>
<path d="M2234 6994 c-8 -29 4 -56 27 -62 9 -2 8 1 -3 11 -20 15 -24 37 -8 37
13 0 13 27 0 35 -5 3 -12 -6 -16 -21z"></path>
<path d="M2140 6980 c0 -5 5 -10 10 -10 6 0 10 5 10 10 0 6 -4 10 -10 10 -5 0
-10 -4 -10 -10z"></path>
<path d="M2190 6976 c0 -2 7 -6 15 -10 8 -3 15 -1 15 4 0 6 -7 10 -15 10 -8 0
-15 -2 -15 -4z"></path>
<path d="M2092 6961 c2 -7 7 -12 11 -12 12 1 9 15 -3 20 -7 2 -11 -2 -8 -8z"></path>
<path d="M2150 6930 c0 -5 9 -10 21 -10 11 0 17 5 14 10 -3 6 -13 10 -21 10
-8 0 -14 -4 -14 -10z"></path>
<path d="M2102 6912 c2 -9 11 -17 21 -17 24 0 23 18 -3 27 -17 6 -21 4 -18
-10z"></path>
<path d="M2655 6890 c-4 -6 7 -10 25 -10 18 0 29 4 25 10 -3 6 -15 10 -25 10
-10 0 -22 -4 -25 -10z"></path>
<path d="M1844 6859 c-3 -6 -1 -16 5 -22 8 -8 11 -5 11 11 0 24 -5 28 -16 11z"></path>
<path d="M2386 6842 c-3 -6 -1 -14 5 -17 15 -10 25 3 12 16 -7 7 -13 7 -17 1z"></path>
<path d="M2278 6823 c6 -2 18 -2 25 0 6 3 1 5 -13 5 -14 0 -19 -2 -12 -5z"></path>
<path d="M1977 6812 c-9 -2 -15 -8 -12 -13 8 -12 45 -12 45 0 0 13 -12 18 -33
13z"></path>
<path d="M2177 6813 c-4 -3 -23 -9 -44 -12 -20 -3 -38 -12 -41 -20 -4 -11 1
-12 19 -7 13 4 48 9 76 13 67 7 95 33 36 33 -22 0 -43 -3 -46 -7z"></path>
<path d="M2390 6790 c0 -5 5 -10 10 -10 6 0 10 5 10 10 0 6 -4 10 -10 10 -5 0
-10 -4 -10 -10z"></path>
<path d="M1954 6771 c9 -14 -62 -23 -85 -11 -11 7 -28 8 -37 5 -24 -10 25 -24
106 -31 56 -4 63 -3 60 12 -2 9 -13 21 -26 25 -13 5 -21 5 -18 0z"></path>
<path d="M1920 6700 c0 -5 7 -10 15 -10 8 0 15 5 15 10 0 6 -7 10 -15 10 -8 0
-15 -4 -15 -10z"></path>
<path d="M2250 6650 c0 -5 9 -10 20 -10 11 0 20 5 20 10 0 6 -9 10 -20 10 -11
0 -20 -4 -20 -10z"></path>
<path d="M2210 6630 c0 -5 5 -10 10 -10 6 0 10 5 10 10 0 6 -4 10 -10 10 -5 0
-10 -4 -10 -10z"></path>
<path d="M1775 6570 c10 -11 25 -20 34 -20 12 1 10 5 -8 20 -30 26 -49 26 -26
0z"></path>
<path d="M3912 6260 c-8 -13 -8 -20 -2 -20 6 0 13 7 17 15 9 24 -1 27 -15 5z"></path>
<path d="M3301 6206 c-10 -12 -6 -26 10 -26 11 0 19 29 10 35 -5 2 -14 -1 -20
-9z"></path>
<path d="M3127 6203 c-12 -11 -8 -23 8 -23 8 0 15 7 15 15 0 16 -12 20 -23 8z"></path>
<path d="M3075 6189 c-10 -15 3 -25 16 -12 7 7 7 13 1 17 -6 3 -14 1 -17 -5z"></path>
<path d="M3595 5770 c4 -6 11 -8 16 -5 14 9 11 15 -7 15 -8 0 -12 -5 -9 -10z"></path>
<path d="M3565 5701 c-7 -12 12 -24 25 -16 11 7 4 25 -10 25 -5 0 -11 -4 -15
-9z"></path>
<path d="M2440 4949 c0 -5 5 -7 10 -4 6 3 10 8 10 11 0 2 -4 4 -10 4 -5 0 -10
-5 -10 -11z"></path>
<path d="M4095 4800 c-3 -5 -1 -10 4 -10 6 0 11 5 11 10 0 6 -2 10 -4 10 -3 0
-8 -4 -11 -10z"></path>
<path d="M3855 4710 c3 -5 10 -10 16 -10 5 0 9 5 9 10 0 6 -7 10 -16 10 -8 0
-12 -4 -9 -10z"></path>
<path d="M2603 4683 c-7 -2 -13 -9 -13 -15 0 -12 50 -2 65 13 10 10 -30 12
-52 2z"></path>
<path d="M1285 5430 c-7 -12 2 -30 16 -30 12 0 12 27 0 35 -5 3 -12 1 -16 -5z"></path>
<path d="M4220 4230 c0 -5 5 -10 10 -10 6 0 10 5 10 10 0 6 -4 10 -10 10 -5 0
-10 -4 -10 -10z"></path>
<path d="M4100 4160 c-13 -8 -12 -10 3 -10 9 0 17 5 17 10 0 12 -1 12 -20 0z"></path>
<path d="M3490 4075 c0 -61 91 -267 143 -324 33 -35 106 -83 120 -78 7 2 -2
11 -20 20 -46 24 -72 62 -162 242 -44 88 -81 151 -81 140z"></path>
<path d="M2200 4221 c0 -12 54 -51 71 -51 7 0 -2 13 -21 30 -37 31 -50 36 -50
21z"></path>
<path d="M1720 3845 c0 -5 5 -17 10 -25 5 -8 10 -10 10 -5 0 6 -5 17 -10 25
-5 8 -10 11 -10 5z"></path>
<path d="M2563 3593 c-34 -4 -46 -23 -15 -23 28 0 62 12 62 21 0 5 -3 8 -7 7
-5 0 -23 -3 -40 -5z"></path>
<path d="M2308 3573 c-107 -4 -137 -23 -35 -23 99 0 227 12 227 21 0 5 -21 8
-47 7 -27 -1 -92 -4 -145 -5z"></path>
<path d="M6536 4225 c-17 -13 -17 -15 -2 -36 l15 -22 11 27 c18 48 11 57 -24
31z"></path>
<path d="M3637 3563 c-18 -18 -5 -73 28 -116 19 -25 35 -51 35 -56 0 -6 5 -11
10 -11 12 0 13 25 1 48 -5 9 -14 35 -20 57 -6 22 -13 50 -16 63 -6 21 -25 29
-38 15z"></path>
<path d="M2864 3454 c-8 -20 -12 -39 -9 -43 10 -9 45 38 45 60 0 31 -20 22
-36 -17z"></path>
<path d="M3468 3102 c-62 -59 -85 -113 -62 -146 8 -11 14 -32 13 -46 0 -20 -3
-17 -14 15 -13 41 -18 39 -16 -5 1 -18 -1 -21 -7 -11 -8 11 -11 11 -18 0 -20
-32 -34 -62 -34 -75 0 -8 -9 -14 -20 -14 -13 0 -20 7 -20 20 0 11 -6 20 -14
20 -8 0 -17 14 -21 30 -4 17 -13 30 -20 30 -7 0 -23 12 -34 26 -11 14 -29 26
-40 27 -16 1 -21 8 -21 28 0 20 -12 38 -42 64 -69 59 -94 69 -140 56 -54 -16
-44 -36 18 -36 39 0 59 -7 97 -33 53 -37 56 -57 10 -58 -33 0 -61 -18 -86 -54
-16 -22 -17 -23 -17 -4 0 11 6 26 13 33 9 11 7 10 -10 0 -13 -8 -23 -18 -23
-24 0 -15 -49 -72 -50 -57 0 16 -27 15 -33 -2 -3 -7 -22 -16 -42 -19 -21 -3
-46 -14 -56 -23 -23 -21 -37 -11 -18 12 12 15 11 16 -9 10 -29 -10 -28 2 6 37
20 22 22 28 9 24 -10 -4 -25 -7 -32 -7 -8 0 -26 -23 -42 -52 -15 -28 -35 -54
-43 -56 -12 -4 -13 -2 -2 9 15 16 16 39 1 39 -7 0 -34 -16 -62 -36 -50 -36
-50 -36 -43 -10 3 14 3 26 -2 26 -14 0 -32 -23 -32 -43 0 -10 -9 -21 -19 -24
-11 -3 -21 -13 -24 -24 -3 -10 -12 -19 -21 -19 -9 0 -16 -8 -16 -21 0 -11 5
-17 10 -14 6 3 10 1 10 -5 0 -7 -6 -10 -14 -7 -19 8 -39 -16 -25 -30 6 -6 6
-19 -1 -39 -8 -21 -8 -30 0 -32 7 -3 6 -12 -5 -29 -14 -21 -15 -30 -4 -54 l12
-30 27 26 27 26 7 -25 c3 -14 13 -26 21 -26 8 0 15 -5 15 -10 0 -12 48 -3 68
13 8 6 17 5 27 -3 12 -10 18 -10 32 1 13 11 17 11 20 2 3 -7 9 -13 15 -13 7 0
6 5 -1 14 -10 11 -6 17 20 30 30 15 34 15 51 0 12 -12 18 -13 18 -4 0 6 6 10
14 7 8 -3 16 -1 18 5 3 8 10 8 25 0 23 -13 52 -14 211 -9 82 3 124 -1 207 -20
l104 -25 80 26 c44 14 90 26 102 26 36 0 103 -22 125 -42 26 -23 81 -23 125
-1 19 10 48 23 66 29 36 13 172 7 191 -9 7 -5 15 -7 19 -4 3 4 12 2 20 -4 9
-9 13 -8 13 0 0 6 7 11 15 11 8 0 15 -4 15 -10 0 -19 18 -10 23 11 3 12 12 19
19 17 27 -9 38 41 32 144 -6 109 -24 167 -54 175 -11 3 -36 27 -55 54 -27 38
-40 48 -57 45 -14 -2 -21 -9 -19 -17 2 -8 6 -23 9 -34 3 -12 -13 -1 -41 30
-25 28 -49 46 -53 42 -5 -5 2 -17 16 -28 24 -19 24 -20 6 -34 -11 -8 -25 -11
-35 -7 -9 5 -33 7 -53 5 -21 -1 -40 2 -43 7 -12 20 -26 10 -15 -10 6 -11 8
-20 4 -20 -12 0 -94 91 -94 105 0 8 -14 22 -31 30 -26 14 -28 19 -18 32 11 12
10 14 -7 11 -15 -2 -19 2 -17 26 1 16 9 36 18 46 15 16 14 18 -17 24 -104 22
-103 22 -160 -32z m40 -475 l19 -33 -38 -17 c-49 -21 -62 -21 -89 1 -22 18
-21 50 1 37 5 -4 9 -1 9 5 0 6 5 8 11 5 6 -4 17 1 24 11 14 18 14 18 15 -1 1
-19 2 -19 12 3 6 12 12 22 14 22 1 0 11 -15 22 -33z m-168 -27 c0 -16 5 -32
10 -35 6 -3 10 -1 10 4 0 6 7 11 16 11 13 0 15 -6 10 -27 -4 -16 -8 -35 -10
-42 -6 -29 -50 -33 -110 -10 -54 20 -57 23 -51 48 8 34 14 39 50 45 17 3 37
14 45 25 19 24 30 18 30 -19z m-890 -84 c0 -3 -4 -8 -10 -11 -5 -3 -10 -1 -10
4 0 6 5 11 10 11 6 0 10 -2 10 -4z"></path>
<path d="M1978 3015 c-4 -17 -1 -25 8 -25 8 0 14 11 14 25 0 14 -4 25 -9 25
-5 0 -11 -11 -13 -25z"></path>
<path d="M2077 2964 c-4 -4 -7 -14 -7 -23 0 -11 3 -12 11 -4 6 6 10 16 7 23
-2 6 -7 8 -11 4z"></path>
<path d="M2880 2949 c0 -5 5 -7 10 -4 6 3 10 8 10 11 0 2 -4 4 -10 4 -5 0 -10
-5 -10 -11z"></path>
<path d="M2116 2851 c-4 -7 -5 -15 -2 -18 9 -9 19 4 14 18 -4 11 -6 11 -12 0z"></path>
<path d="M4386 2798 c8 -29 10 -31 23 -24 7 5 7 13 -2 26 -16 27 -30 25 -21
-2z"></path>
<path d="M2486 2795 c-3 -8 -1 -15 4 -15 6 0 10 7 10 15 0 8 -2 15 -4 15 -2 0
-6 -7 -10 -15z"></path>
<path d="M4390 2740 c0 -5 5 -10 10 -10 6 0 10 5 10 10 0 6 -4 10 -10 10 -5 0
-10 -4 -10 -10z"></path>
<path d="M4270 2690 c0 -5 5 -10 11 -10 5 0 7 5 4 10 -3 6 -8 10 -11 10 -2 0
-4 -4 -4 -10z"></path>
<path d="M3405 2210 c6 -18 2 -20 -50 -20 -47 0 -56 3 -51 15 3 9 0 15 -9 15
-9 0 -15 -9 -15 -21 0 -14 -5 -19 -17 -17 -11 2 -17 11 -15 21 5 27 -15 20
-22 -8 -8 -31 -24 -33 -28 -2 -3 25 -18 26 -33 2 -7 -12 -6 -19 8 -26 9 -6 17
-21 17 -34 0 -22 5 -25 34 -25 19 0 38 -5 41 -11 4 -6 13 -8 21 -5 8 3 14 -1
14 -10 0 -9 6 -14 13 -11 6 2 20 0 31 -5 12 -7 21 -7 25 0 10 15 49 24 56 12
11 -18 25 -10 25 15 0 18 5 25 19 25 11 0 23 -5 26 -11 5 -7 14 -3 26 10 11
12 24 21 29 21 18 0 10 29 -14 54 -27 30 -36 32 -36 11 0 -23 -71 -17 -78 7
-2 10 -9 18 -14 18 -5 0 -6 -9 -3 -20z"></path>
<path d="M3577 2224 c-14 -15 -6 -34 14 -34 14 0 19 5 17 17 -3 18 -20 27 -31
17z"></path>
<path d="M3112 2188 c2 -22 9 -32 22 -34 14 -2 16 0 7 9 -6 6 -11 21 -11 34 0
13 -5 23 -11 23 -6 0 -9 -14 -7 -32z"></path>
<path d="M6490 3900 c0 -5 5 -10 11 -10 5 0 7 5 4 10 -3 6 -8 10 -11 10 -2 0
-4 -4 -4 -10z"></path>
<path d="M6340 3889 c0 -5 5 -7 10 -4 6 3 10 8 10 11 0 2 -4 4 -10 4 -5 0 -10
-5 -10 -11z"></path>
<path d="M5065 3450 c3 -5 13 -10 21 -10 8 0 14 5 14 10 0 6 -9 10 -21 10 -11
0 -17 -4 -14 -10z"></path>
<path d="M6300 2550 c0 -5 5 -10 11 -10 5 0 7 5 4 10 -3 6 -8 10 -11 10 -2 0
-4 -4 -4 -10z"></path>
<path d="M5850 1860 c0 -5 5 -10 10 -10 6 0 10 5 10 10 0 6 -4 10 -10 10 -5 0
-10 -4 -10 -10z"></path>
<path d="M5972 1513 c-17 -7 -5 -23 18 -23 13 0 17 5 14 15 -6 16 -11 17 -32
8z"></path>
<path d="M6165 1480 c3 -5 8 -10 11 -10 2 0 4 5 4 10 0 6 -5 10 -11 10 -5 0
-7 -4 -4 -10z"></path>
<path d="M6096 1472 c-3 -6 -1 -14 5 -17 14 -9 20 -2 10 14 -6 8 -11 9 -15 3z"></path>
<path d="M6040 1460 c0 -5 7 -10 15 -10 8 0 15 5 15 10 0 6 -7 10 -15 10 -8 0
-15 -4 -15 -10z"></path>
<path d="M6134 1449 c-3 -5 -4 -9 -2 -10 25 -6 39 -6 43 1 3 4 -4 10 -15 13
-11 3 -23 1 -26 -4z"></path>
<path d="M6180 1411 c0 -5 5 -13 10 -16 6 -3 10 -2 10 4 0 5 -4 13 -10 16 -5
3 -10 2 -10 -4z"></path>
<path d="M6300 1400 c0 -5 5 -10 11 -10 5 0 7 5 4 10 -3 6 -8 10 -11 10 -2 0
-4 -4 -4 -10z"></path>
<path d="M6235 1389 c-11 -17 -2 -18 19 -3 17 12 17 14 4 14 -9 0 -20 -5 -23
-11z"></path>
<path d="M6365 1390 c-3 -5 -1 -10 4 -10 6 0 11 5 11 10 0 6 -2 10 -4 10 -3 0
-8 -4 -11 -10z"></path>
<path d="M6043 1365 c0 -14 3 -25 8 -25 5 0 9 11 9 25 0 14 -4 25 -9 25 -5 0
-8 -11 -8 -25z"></path>
<path d="M6176 1365 c-14 -14 -15 -20 -4 -26 8 -5 16 -2 21 7 14 25 3 38 -17
19z"></path>
<path d="M6266 1322 c-2 -4 4 -9 15 -9 11 -1 17 2 14 8 -7 11 -22 12 -29 1z"></path>
<path d="M6386 1315 c4 -8 10 -15 15 -15 5 0 9 7 9 15 0 8 -7 15 -15 15 -9 0
-12 -6 -9 -15z"></path>
<path d="M6473 1292 c0 -10 7 -19 14 -19 17 0 16 5 -1 23 -13 12 -15 12 -13
-4z"></path>
<path d="M6245 1289 c-3 -4 2 -6 10 -5 21 3 28 13 10 13 -9 0 -18 -4 -20 -8z"></path>
<path d="M1815 8054 c-22 -54 -105 -284 -105 -292 0 -4 20 -15 45 -24 45 -17
45 -17 57 6 l13 24 53 -24 c43 -19 52 -27 52 -49 0 -18 9 -31 33 -45 66 -41
66 -47 7 225 l-37 170 -39 22 c-53 30 -61 29 -79 -13z m80 -181 c5 -34 4 -43
-8 -43 -28 0 -37 23 -25 63 14 44 23 38 33 -20z"></path>
<path d="M2047 7874 c-4 -59 -7 -142 -7 -185 0 -69 2 -80 22 -93 38 -27 48
-20 48 29 0 25 2 45 4 45 2 0 16 -6 32 -14 55 -29 84 22 69 121 -13 86 -43
128 -136 187 l-26 16 -6 -106z m113 -96 c0 -31 -3 -33 -31 -18 -19 10 -27 59
-12 73 12 13 43 -26 43 -55z"></path>
<path d="M2370 7710 c0 -5 5 -10 10 -10 6 0 10 5 10 10 0 6 -4 10 -10 10 -5 0
-10 -4 -10 -10z"></path>
<path d="M1527 7643 c-3 -5 -6 -66 -8 -136 l-4 -128 70 -30 c61 -26 167 -78
318 -156 52 -27 61 -27 108 -5 42 19 53 38 17 28 -59 -16 -94 -15 -123 2 -17
9 -98 50 -180 90 -83 41 -157 77 -165 82 -12 6 -15 27 -13 105 1 54 6 102 11
107 11 11 155 -56 282 -131 95 -55 223 -148 276 -199 26 -25 46 -37 53 -32 17
10 -94 107 -221 193 -88 59 -386 217 -409 217 -4 0 -10 -3 -12 -7z"></path>
<path d="M2030 7163 c-8 -2 -21 -7 -29 -9 -11 -3 -11 -8 -3 -16 8 -8 15 -8 24
-1 7 6 27 15 43 21 28 10 29 10 5 10 -14 0 -32 -2 -40 -5z"></path>
<path d="M1915 7141 c-3 -5 -2 -12 3 -15 12 -7 52 4 52 15 0 12 -47 12 -55 0z"></path>
<path d="M6780 6264 c-74 -7 -214 -20 -310 -29 -492 -45 -685 -66 -692 -73 -4
-4 -2 -16 4 -25 12 -16 37 -15 393 17 209 19 466 42 570 51 257 21 255 21 255
50 0 30 -8 30 -220 9z"></path>
<path d="M6770 6152 c-25 -1 -191 -16 -370 -32 -179 -17 -385 -36 -457 -42
-73 -6 -133 -14 -133 -18 0 -4 7 -13 15 -20 13 -11 43 -11 153 -1 969 81 1022
87 1022 108 0 12 -84 14 -230 5z"></path>
<path d="M912 5923 c-38 -18 -102 -89 -102 -112 0 -10 13 -2 33 22 17 21 50
53 72 72 45 39 44 42 -3 18z"></path>
<path d="M930 5825 c-20 -24 -6 -28 15 -5 10 11 13 20 8 20 -6 0 -16 -7 -23
-15z"></path>
<path d="M866 5735 c-16 -25 -23 -57 -8 -39 10 11 33 64 28 64 -2 0 -11 -11
-20 -25z"></path>
<path d="M6843 5080 c-35 -21 -38 -27 -23 -50 8 -13 11 -12 23 4 12 16 16 17
35 5 29 -18 37 -6 22 31 -15 36 -16 36 -57 10z"></path>
<path d="M90 5053 c-86 -6 -90 -9 -90 -55 0 -39 1 -40 18 -25 10 10 27 17 36
17 10 0 31 8 47 17 31 19 33 18 43 -14 6 -18 4 -22 -7 -17 -24 9 -30 -14 -7
-26 18 -10 20 -20 19 -133 -1 -67 -4 -149 -8 -182 l-6 -60 -40 -7 c-51 -9 -69
-3 -83 25 -9 18 -11 12 -11 -40 l-1 -62 128 6 c70 3 130 9 135 12 9 9 30 528
22 541 -6 9 -94 11 -195 3z"></path>
<path d="M17 4952 c-14 -15 -17 -41 -17 -141 0 -68 4 -120 9 -117 5 3 12 58
16 121 6 98 10 118 26 128 10 6 19 15 19 19 0 15 -37 8 -53 -10z"></path>
<path d="M6415 4674 c-26 -28 -32 -44 -15 -44 6 0 10 7 10 15 0 18 31 35 63
35 32 0 57 -29 57 -67 0 -60 -71 -85 -108 -38 -11 14 -23 25 -26 25 -14 0 -4
-22 19 -45 51 -52 135 -15 135 60 0 76 -85 113 -135 59z"></path>
<path d="M6243 4683 c-15 -5 -18 -43 -4 -43 5 0 12 7 15 16 3 9 15 14 28 12
20 -3 23 -10 26 -58 4 -79 22 -89 22 -13 0 34 3 68 6 77 5 13 -2 16 -37 15
-24 0 -50 -3 -56 -6z"></path>
<path d="M5993 4665 c-8 -22 6 -33 17 -15 13 20 12 30 0 30 -6 0 -13 -7 -17
-15z"></path>
<path d="M6127 4674 c-11 -11 -8 -134 3 -134 6 0 10 20 10 45 0 25 4 45 8 45
5 0 28 -23 51 -50 23 -28 47 -48 52 -44 5 3 -9 24 -30 47 -22 23 -50 55 -63
70 -13 16 -27 25 -31 21z"></path>
<path d="M5938 4645 c-13 -28 -6 -40 17 -32 17 7 21 57 5 57 -6 0 -16 -11 -22
-25z"></path>
<path d="M6810 4633 c-14 -3 -29 -9 -35 -15 -7 -7 -1 -9 18 -4 23 5 29 3 37
-19 5 -14 9 -31 7 -38 -1 -7 10 -12 31 -12 17 0 32 5 32 10 -1 6 -12 9 -25 7
-14 -2 -25 1 -25 7 0 6 7 11 15 11 8 0 15 5 15 10 0 6 -7 10 -15 10 -8 0 -15
5 -15 10 0 6 9 10 20 10 11 0 20 -4 20 -8 0 -5 7 -17 15 -28 15 -18 16 -18 13
6 -2 17 2 26 15 28 12 3 16 -2 15 -19 -2 -12 3 -24 10 -26 10 -4 13 4 10 28
l-3 34 -65 1 c-36 1 -76 0 -90 -3z"></path>
<path d="M6604 4616 c-3 -8 -4 -29 -2 -48 2 -27 8 -34 28 -36 27 -3 70 22 58
34 -4 4 -14 1 -22 -6 -22 -17 -38 -8 -42 23 -2 18 2 27 12 27 8 0 14 5 14 10
0 15 -40 12 -46 -4z"></path>
<path d="M6667 4624 c-3 -4 -2 -15 4 -26 6 -11 13 -17 17 -14 3 4 16 -4 29
-16 27 -25 28 -24 36 25 6 39 -11 53 -20 17 -7 -25 -11 -25 -38 0 -12 11 -24
17 -28 14z"></path>
<path d="M6011 4604 c0 -11 3 -14 6 -6 3 7 2 16 -1 19 -3 4 -6 -2 -5 -13z"></path>
<path d="M5911 4582 c-7 -13 -18 -21 -26 -19 -14 6 -9 -29 6 -38 10 -7 42 52
36 68 -2 7 -9 2 -16 -11z"></path>
<path d="M6780 4560 c0 -5 5 -10 10 -10 6 0 10 5 10 10 0 6 -4 10 -10 10 -5 0
-10 -4 -10 -10z"></path>
<path d="M5960 4540 c0 -5 5 -10 10 -10 6 0 10 5 10 10 0 6 -4 10 -10 10 -5 0
-10 -4 -10 -10z"></path>
<path d="M6005 4541 c-3 -2 -2 -8 1 -12 7 -12 94 -12 94 0 0 9 -88 20 -95 12z"></path>
<path d="M6960 4350 c0 -5 5 -10 10 -10 6 0 10 5 10 10 0 6 -4 10 -10 10 -5 0
-10 -4 -10 -10z"></path>
<path d="M6033 4343 c-22 -8 -14 -23 13 -23 15 0 24 5 22 12 -5 14 -18 18 -35
11z"></path>
<path d="M6107 4323 c-3 -4 -8 -22 -11 -39 -10 -44 15 -61 102 -72 40 -5 74
-6 77 -4 3 3 5 15 5 26 0 20 -5 21 -76 18 -80 -4 -109 7 -85 31 7 7 41 12 89
12 62 0 77 3 77 15 0 12 -18 16 -87 18 -47 1 -88 -1 -91 -5z"></path>
<path d="M5988 4263 c-20 -5 -24 -28 -7 -39 7 -4 16 1 21 10 7 12 17 16 33 12
14 -4 27 0 35 9 11 13 7 15 -26 14 -22 -1 -47 -3 -56 -6z"></path>
<path d="M5816 4222 c-7 -12 5 -81 15 -88 5 -3 9 18 9 45 0 46 -10 65 -24 43z"></path>
<path d="M5980 4140 c0 -5 5 -10 10 -10 6 0 10 5 10 10 0 6 -4 10 -10 10 -5 0
-10 -4 -10 -10z"></path>
<path d="M205 4006 l-200 -11 -3 -32 c-3 -33 -3 -33 40 -33 117 1 542 30 550
38 6 6 8 18 6 28 -3 17 -14 19 -98 20 -52 1 -185 -4 -295 -10z"></path>
<path d="M6975 3950 c-6 -9 11 -50 20 -50 3 0 5 14 5 30 0 29 -13 40 -25 20z"></path>
<path d="M5662 3925 c-14 -16 -9 -18 26 -9 12 4 22 10 22 15 0 14 -34 10 -48
-6z"></path>
<path d="M433 3913 c-114 -4 -143 -23 -34 -23 93 0 191 11 191 21 0 5 -12 8
-27 7 -16 -1 -74 -4 -130 -5z"></path>
<path d="M5795 3910 c-3 -6 -18 -7 -32 -4 -24 6 -26 5 -20 -17 4 -13 7 -27 7
-31 0 -14 37 -8 50 7 18 22 192 21 210 -1 14 -16 77 -16 72 1 -1 6 -8 11 -15
11 -6 1 -16 2 -21 3 -5 0 -3 7 3 14 6 8 8 17 4 20 -11 11 -251 8 -258 -3z"></path>
<path d="M6085 3910 c3 -5 8 -10 11 -10 2 0 4 5 4 10 0 6 -5 10 -11 10 -5 0
-7 -4 -4 -10z"></path>
<path d="M406 3861 c-3 -4 4 -36 15 -70 19 -57 23 -62 48 -59 24 3 26 6 26 53
0 28 4 56 9 63 11 17 1 26 -20 18 -14 -5 -15 -15 -10 -55 4 -29 2 -52 -3 -56
-14 -8 -41 48 -41 85 0 29 -13 40 -24 21z"></path>
<path d="M6980 3826 c0 -8 5 -18 10 -21 6 -3 10 3 10 14 0 12 -4 21 -10 21 -5
0 -10 -6 -10 -14z"></path>
<path d="M40 3780 c-33 -5 -13 -7 73 -8 72 -1 117 2 117 8 0 11 -118 11 -190
0z"></path>
<path d="M5480 3750 c0 -6 40 -10 100 -10 60 0 100 4 100 10 0 6 -40 10 -100
10 -60 0 -100 -4 -100 -10z"></path>
<path d="M6025 3750 c-7 -12 2 -30 16 -30 12 0 12 27 0 35 -5 3 -12 1 -16 -5z"></path>
<path d="M5900 3730 c0 -11 7 -32 16 -45 14 -21 24 -25 65 -25 26 0 50 4 54
10 3 5 11 7 18 4 8 -3 23 -1 35 3 15 6 19 12 12 23 -8 12 -11 12 -27 -2 -12
-11 -23 -14 -32 -8 -8 4 -25 4 -38 -1 -48 -18 -63 -12 -61 23 3 28 -1 34 -19
36 -18 3 -23 -2 -23 -18z"></path>
<path d="M100 3725 c-10 -12 -9 -16 4 -21 9 -3 23 -3 32 0 13 5 14 9 4 21 -7
8 -16 15 -20 15 -4 0 -13 -7 -20 -15z"></path>
<path d="M5714 3731 c-6 -7 -5 -47 2 -54 8 -8 54 34 54 49 0 11 -46 15 -56 5z"></path>
<path d="M6984 3729 c-3 -6 -1 -16 5 -22 8 -8 11 -5 11 11 0 24 -5 28 -16 11z"></path>
<path d="M215 3709 c-4 -6 -5 -12 -4 -13 8 -7 69 7 69 15 0 13 -57 11 -65 -2z"></path>
<path d="M380 3690 c0 -6 40 -10 99 -10 56 0 103 4 106 10 4 6 -32 10 -99 10
-64 0 -106 -4 -106 -10z"></path>
<path d="M5470 3690 c0 -5 26 -10 57 -12 l58 -3 10 -54 c6 -30 16 -56 23 -59
10 -3 11 6 5 40 -4 23 -7 55 -7 71 l1 27 -73 0 c-41 0 -74 -4 -74 -10z"></path>
<path d="M330 3680 c0 -5 7 -10 15 -10 8 0 15 5 15 10 0 6 -7 10 -15 10 -8 0
-15 -4 -15 -10z"></path>
<path d="M5400 3650 c0 -6 33 -10 80 -10 47 0 80 4 80 10 0 6 -33 10 -80 10
-47 0 -80 -4 -80 -10z"></path>
<path d="M5730 3630 c0 -5 14 -10 31 -10 17 0 39 -5 49 -10 11 -6 60 -13 108
-15 72 -4 92 -2 102 10 7 8 28 15 46 15 19 0 34 5 34 10 0 6 -68 10 -185 10
-117 0 -185 -4 -185 -10z"></path>
<path d="M130 3621 c0 -6 5 -13 10 -16 6 -3 10 1 10 9 0 9 -4 16 -10 16 -5 0
-10 -4 -10 -9z"></path>
<path d="M5380 3620 c0 -5 5 -10 10 -10 6 0 10 5 10 10 0 6 -4 10 -10 10 -5 0
-10 -4 -10 -10z"></path>
<path d="M6992 3575 c0 -16 2 -22 5 -12 2 9 2 23 0 30 -3 6 -5 -1 -5 -18z"></path>
<path d="M60 3525 c0 -37 4 -65 10 -65 6 0 10 28 10 65 0 37 -4 65 -10 65 -6
0 -10 -28 -10 -65z"></path>
<path d="M5730 3580 c0 -5 11 -10 25 -10 14 0 25 5 25 10 0 6 -11 10 -25 10
-14 0 -25 -4 -25 -10z"></path>
<path d="M200 3490 c0 -53 4 -90 10 -90 6 0 10 37 10 90 0 53 -4 90 -10 90 -6
0 -10 -37 -10 -90z"></path>
<path d="M5667 3548 c7 -40 10 -45 24 -31 14 14 1 63 -17 63 -10 0 -12 -9 -7
-32z"></path>
<path d="M6030 3545 c0 -19 5 -35 10 -35 6 0 10 6 10 13 0 6 3 22 6 35 5 16 2
22 -10 22 -12 0 -16 -9 -16 -35z"></path>
<path d="M5817 3551 c-6 -23 9 -39 24 -24 5 5 4 16 -4 28 -13 17 -14 17 -20
-4z"></path>
<path d="M5400 3546 c0 -7 14 -16 30 -19 42 -9 40 -37 -2 -37 -32 -1 -32 -1
-13 -16 11 -8 19 -22 17 -30 -2 -8 2 -14 8 -14 5 0 10 7 10 16 0 11 6 14 20 9
18 -6 20 -2 20 49 l0 56 -45 0 c-32 0 -45 -4 -45 -14z"></path>
<path d="M5742 3528 c-6 -6 -12 -20 -12 -30 0 -10 -5 -18 -12 -18 -9 0 -9 -3
-1 -11 20 -20 44 -3 37 27 -5 20 -3 25 9 22 9 -2 16 2 17 7 2 15 -24 17 -38 3z"></path>
<path d="M5910 3520 c0 -11 4 -20 9 -20 5 0 16 -3 25 -6 23 -9 20 23 -3 36
-27 14 -31 13 -31 -10z"></path>
<path d="M6084 3526 c-8 -22 3 -33 18 -18 9 9 9 15 0 24 -9 9 -13 7 -18 -6z"></path>
<path d="M5630 3521 c0 -6 5 -13 10 -16 6 -3 10 1 10 9 0 9 -4 16 -10 16 -5 0
-10 -4 -10 -9z"></path>
<path d="M5240 3465 c0 -25 5 -45 10 -45 6 0 10 20 10 45 0 25 -4 45 -10 45
-5 0 -10 -20 -10 -45z"></path>
<path d="M6991 3494 c0 -11 3 -14 6 -6 3 7 2 16 -1 19 -3 4 -6 -2 -5 -13z"></path>
<path d="M6260 3489 c0 -5 5 -7 10 -4 6 3 10 8 10 11 0 2 -4 4 -10 4 -5 0 -10
-5 -10 -11z"></path>
<path d="M6115 3479 c-11 -4 -91 -8 -177 -8 -98 -1 -158 -5 -158 -11 0 -6 59
-10 158 -10 109 0 162 -4 170 -12 9 -9 15 -8 27 8 24 32 15 48 -20 33z"></path>
<path d="M72 3431 c2 -9 13 -16 27 -16 13 0 26 -6 28 -12 3 -7 -1 -13 -8 -13
-10 0 -10 -3 -2 -11 7 -7 9 -24 6 -39 -3 -15 0 -31 6 -34 10 -7 13 -2 15 34 1
11 14 15 51 15 l50 0 3 -52 c2 -29 8 -53 13 -53 6 0 9 25 7 62 -3 61 -4 62
-36 70 -23 6 -38 5 -48 -3 -20 -17 -42 -4 -46 28 -2 22 -9 29 -36 34 -27 6
-32 4 -30 -10z"></path>
<path d="M5190 3385 c0 -37 4 -65 10 -65 6 0 10 28 10 65 0 37 -4 65 -10 65
-6 0 -10 -28 -10 -65z"></path>
<path d="M6160 3430 c0 -5 5 -10 10 -10 6 0 10 5 10 10 0 6 -4 10 -10 10 -5 0
-10 -4 -10 -10z"></path>
<path d="M5280 3400 c0 -5 14 -10 30 -10 17 0 30 5 30 10 0 6 -13 10 -30 10
-16 0 -30 -4 -30 -10z"></path>
<path d="M5470 3400 c0 -5 5 -10 11 -10 5 0 7 5 4 10 -3 6 -8 10 -11 10 -2 0
-4 -4 -4 -10z"></path>
<path d="M5663 3394 c-7 -3 -9 -12 -6 -20 3 -8 0 -21 -6 -28 -17 -20 3 -30 29
-14 16 10 24 10 41 0 18 -11 24 -11 41 5 19 17 20 17 29 0 7 -12 23 -17 59
-17 43 0 50 3 50 20 0 28 19 25 30 -5 6 -15 17 -25 30 -25 24 0 25 8 4 31 -17
19 -11 39 12 39 8 0 14 5 14 10 0 6 -37 10 -91 10 -87 0 -90 -1 -84 -21 5 -16
3 -20 -6 -17 -8 3 -14 11 -14 19 0 10 -16 15 -60 16 -33 1 -65 0 -72 -3z m223
-25 c10 -17 -13 -36 -27 -22 -12 12 -4 33 11 33 5 0 12 -5 16 -11z"></path>
<path d="M320 3350 c0 -6 48 -10 124 -10 73 0 127 4 131 10 4 6 -40 10 -124
10 -81 0 -131 -4 -131 -10z"></path>
<path d="M5566 3334 c-4 -10 -2 -22 3 -27 14 -14 43 0 39 20 -4 24 -34 28 -42
7z"></path>
<path d="M5265 3331 c-3 -2 -2 -8 1 -12 7 -12 94 -12 94 0 0 9 -88 20 -95 12z"></path>
<path d="M5030 3290 c0 -5 5 -10 10 -10 6 0 10 5 10 10 0 6 -4 10 -10 10 -5 0
-10 -4 -10 -10z"></path>
<path d="M5712 3292 c-44 -2 -62 -7 -59 -15 3 -9 59 -11 217 -10 194 2 232 5
219 17 -6 6 -296 12 -377 8z"></path>
<path d="M120 3216 c0 -44 4 -76 10 -76 6 0 10 30 10 69 0 39 -4 73 -10 76 -6
4 -10 -22 -10 -69z"></path>
<path d="M70 3239 c0 -5 5 -7 10 -4 6 3 10 8 10 11 0 2 -4 4 -10 4 -5 0 -10
-5 -10 -11z"></path>
<path d="M5090 3230 c0 -5 11 -10 25 -10 14 0 25 5 25 10 0 6 -11 10 -25 10
-14 0 -25 -4 -25 -10z"></path>
<path d="M5660 3210 c0 -5 7 -10 15 -10 8 0 15 5 15 10 0 6 -7 10 -15 10 -8 0
-15 -4 -15 -10z"></path>
<path d="M6030 3210 c0 -5 11 -10 25 -10 14 0 25 5 25 10 0 6 -11 10 -25 10
-14 0 -25 -4 -25 -10z"></path>
<path d="M5720 3195 c7 -8 16 -15 21 -15 5 0 9 7 9 15 0 9 -9 15 -21 15 -18 0
-19 -2 -9 -15z"></path>
<path d="M5870 3200 c0 -6 30 -10 71 -10 44 0 68 4 64 10 -3 6 -35 10 -71 10
-36 0 -64 -4 -64 -10z"></path>
<path d="M245 3177 c-5 -17 -3 -33 3 -39 16 -16 27 18 14 45 -10 22 -10 21
-17 -6z"></path>
<path d="M5845 3180 c-3 -5 -1 -10 4 -10 6 0 11 5 11 10 0 6 -2 10 -4 10 -3 0
-8 -4 -11 -10z"></path>
<path d="M5517 3174 c-4 -5 -17 -9 -29 -9 -16 0 -21 -8 -24 -32 -2 -18 -5 -36
-5 -40 -5 -20 15 -43 37 -43 20 0 23 -5 26 -47 l3 -48 63 -3 c34 -2 62 -7 62
-11 0 -19 40 -19 50 -1 6 11 24 20 43 22 20 2 32 8 32 18 0 21 -44 14 -71 -11
-20 -19 -23 -19 -38 -4 -12 13 -16 36 -16 98 0 45 -4 88 -9 95 -9 15 -112 28
-124 16z"></path>
<path d="M5293 3163 c-13 -2 -23 -8 -23 -13 0 -4 -8 -7 -17 -6 -15 1 -18 -7
-18 -44 l0 -45 54 0 54 0 0 55 c0 58 -4 62 -50 53z m13 -54 c9 -16 -12 -33
-31 -25 -14 5 -15 9 -5 21 15 18 26 19 36 4z"></path>
<path d="M5370 3150 c0 -5 18 -10 40 -10 22 0 40 5 40 10 0 6 -18 10 -40 10
-22 0 -40 -4 -40 -10z"></path>
<path d="M5727 3154 c-11 -11 3 -24 24 -24 12 0 19 5 17 13 -5 14 -31 21 -41
11z"></path>
<path d="M5980 3130 c0 -5 5 -10 10 -10 6 0 10 5 10 10 0 6 -4 10 -10 10 -5 0
-10 -4 -10 -10z"></path>
<path d="M5730 3094 c0 -8 5 -12 10 -9 6 4 8 11 5 16 -9 14 -15 11 -15 -7z"></path>
<path d="M6497 3074 c-3 -6 7 -24 23 -39 17 -16 30 -34 30 -41 0 -13 87 -94
101 -94 19 0 6 19 -69 100 -44 47 -81 79 -85 74z"></path>
<path d="M5360 3060 c0 -5 18 -10 40 -10 22 0 40 5 40 10 0 6 -18 10 -40 10
-22 0 -40 -4 -40 -10z"></path>
<path d="M225 3050 c3 -5 8 -10 11 -10 2 0 4 5 4 10 0 6 -5 10 -11 10 -5 0 -7
-4 -4 -10z"></path>
<path d="M5665 3039 c-10 -15 1 -23 20 -15 9 3 13 10 10 16 -8 13 -22 13 -30
-1z"></path>
<path d="M5851 3024 c0 -11 3 -14 6 -6 3 7 2 16 -1 19 -3 4 -6 -2 -5 -13z"></path>
<path d="M5190 3016 c-18 -18 -11 -29 15 -24 14 3 28 1 31 -3 3 -5 41 -9 85
-9 46 0 79 -4 79 -10 0 -5 -4 -10 -10 -10 -20 0 -9 -29 13 -32 20 -3 22 -8 22
-64 0 -49 2 -58 13 -48 17 18 14 134 -4 141 -24 9 -4 23 32 23 31 0 35 3 32
23 -3 22 -5 22 -150 23 -90 0 -151 -3 -158 -10z"></path>
<path d="M5832 2988 c-8 -8 -9 -15 -1 -25 16 -19 29 -16 29 6 0 25 -13 34 -28
19z"></path>
<path d="M5475 2950 c-3 -5 -1 -10 4 -10 6 0 11 5 11 10 0 6 -2 10 -4 10 -3 0
-8 -4 -11 -10z"></path>
<path d="M5771 2928 c-10 -25 1 -44 18 -34 14 9 14 43 1 51 -6 3 -14 -4 -19
-17z"></path>
<path d="M5060 2905 c-10 -13 -9 -15 9 -15 12 0 21 6 21 15 0 8 -4 15 -9 15
-5 0 -14 -7 -21 -15z"></path>
<path d="M5925 2910 c-8 -13 4 -32 16 -25 12 8 12 35 0 35 -6 0 -13 -4 -16
-10z"></path>
<path d="M5673 2903 c-8 -3 -13 -22 -13 -44 0 -35 2 -39 26 -39 25 0 26 2 19
38 -7 42 -14 52 -32 45z"></path>
<path d="M5120 2880 c0 -5 5 -10 10 -10 6 0 10 5 10 10 0 6 -4 10 -10 10 -5 0
-10 -4 -10 -10z"></path>
<path d="M5160 2880 c0 -5 5 -10 10 -10 6 0 10 5 10 10 0 6 -4 10 -10 10 -5 0
-10 -4 -10 -10z"></path>
<path d="M5548 2883 c12 -2 32 -2 45 0 12 2 2 4 -23 4 -25 0 -35 -2 -22 -4z"></path>
<path d="M4970 2845 c-19 -14 -31 -25 -28 -25 10 0 68 32 73 41 11 17 -11 9
-45 -16z"></path>
<path d="M5800 2862 c0 -10 41 -35 47 -28 9 8 -17 36 -33 36 -8 0 -14 -3 -14
-8z"></path>
<path d="M4826 2834 c-4 -9 -4 -19 -1 -23 8 -7 41 14 38 25 -4 17 -30 15 -37
-2z"></path>
<path d="M5370 2766 c0 -63 -3 -75 -17 -79 -14 -3 -12 -6 10 -15 27 -11 27
-13 28 -104 0 -118 10 -173 29 -173 11 0 14 9 12 30 -2 17 -7 35 -11 40 -4 6
-8 62 -10 125 -1 63 -7 119 -12 125 -5 5 -9 35 -9 67 0 32 -4 58 -10 58 -6 0
-10 -31 -10 -74z"></path>
<path d="M6700 2822 c0 -10 5 -23 10 -28 6 -6 13 -40 17 -77 l6 -67 -39 -1
c-21 -1 -94 0 -161 1 -81 1 -123 -2 -123 -8 0 -12 226 -21 295 -12 l40 5 0 55
c0 59 -22 150 -36 150 -5 0 -9 -8 -9 -18z"></path>
<path d="M5740 2820 c0 -5 7 -10 15 -10 8 0 15 5 15 10 0 6 -7 10 -15 10 -8 0
-15 -4 -15 -10z"></path>
<path d="M0 2785 c0 -36 0 -36 38 -30 54 9 62 13 62 28 0 12 -65 37 -94 37 -3
0 -6 -16 -6 -35z"></path>
<path d="M5935 2790 c-3 -5 -1 -10 4 -10 6 0 11 5 11 10 0 6 -2 10 -4 10 -3 0
-8 -4 -11 -10z"></path>
<path d="M4888 2783 c7 -3 16 -2 19 1 4 3 -2 6 -13 5 -11 0 -14 -3 -6 -6z"></path>
<path d="M6010 2784 c0 -9 28 -34 38 -34 8 0 22 22 22 36 0 2 -13 4 -30 4 -16
0 -30 -3 -30 -6z"></path>
<path d="M6110 2780 c0 -5 5 -10 10 -10 6 0 10 5 10 10 0 6 -4 10 -10 10 -5 0
-10 -4 -10 -10z"></path>
<path d="M5680 2770 c0 -5 10 -10 23 -10 13 0 28 -5 35 -12 7 -7 12 -9 12 -4
0 4 -6 14 -14 22 -17 16 -56 19 -56 4z"></path>
<path d="M6330 2770 c0 -5 9 -10 20 -10 11 0 20 5 20 10 0 6 -9 10 -20 10 -11
0 -20 -4 -20 -10z"></path>
<path d="M4840 2760 c-8 -5 -11 -12 -7 -16 4 -4 15 0 24 9 18 18 8 23 -17 7z"></path>
<path d="M5810 2760 c0 -5 9 -10 20 -10 11 0 20 5 20 10 0 6 -9 10 -20 10 -11
0 -20 -4 -20 -10z"></path>
<path d="M5488 2734 c0 -11 -1 -27 0 -36 1 -13 -5 -18 -22 -18 -20 0 -24 -4
-22 -25 4 -35 12 -40 26 -16 8 17 15 19 29 11 17 -9 19 -24 20 -151 1 -79 4
-146 7 -151 9 -15 24 -8 24 11 0 16 8 21 48 24 l47 3 -47 2 c-44 2 -48 4 -48
26 0 14 5 28 10 31 6 3 10 48 10 101 0 52 3 94 8 94 4 0 13 -14 21 -32 14 -30
15 -31 22 -10 5 12 12 22 17 22 10 0 37 -29 31 -33 -2 -1 -17 -9 -32 -17 -30
-16 -66 -65 -55 -75 11 -11 69 25 78 50 5 13 15 27 23 32 8 4 17 19 19 33 4
34 28 60 55 60 19 0 22 -6 25 -47 l3 -48 43 -3 43 -3 -3 78 -3 78 -102 -3
c-81 -3 -108 0 -125 12 -26 19 -118 22 -118 5 0 -8 -5 -8 -15 1 -12 10 -15 9
-17 -6z m102 -34 c0 -5 -4 -10 -9 -10 -6 0 -13 5 -16 10 -3 6 1 10 9 10 9 0
16 -4 16 -10z m205 -10 c3 -5 -1 -10 -10 -10 -9 0 -13 5 -10 10 3 6 8 10 10
10 2 0 7 -4 10 -10z"></path>
<path d="M6530 2730 c0 -5 5 -10 11 -10 6 0 24 -11 41 -25 30 -25 48 -32 48
-17 0 7 -85 62 -95 62 -3 0 -5 -4 -5 -10z"></path>
<path d="M5185 2719 c-11 -17 1 -21 15 -4 8 9 8 15 2 15 -6 0 -14 -5 -17 -11z"></path>
<path d="M5936 2712 c-2 -4 -6 -56 -7 -114 -2 -89 0 -111 14 -126 18 -19 23
-62 9 -62 -5 0 -14 12 -21 26 -14 32 -24 26 -16 -9 4 -14 16 -28 27 -30 15 -4
19 -11 15 -26 -5 -22 7 -29 18 -11 7 11 72 12 120 1 26 -6 30 -11 31 -41 2
-99 5 -120 14 -120 6 0 10 29 10 68 0 70 -17 112 -45 112 -8 0 -17 10 -20 23
-6 28 -13 68 -14 85 -1 6 -8 12 -16 12 -10 0 -15 10 -15 29 0 42 -10 64 -24
52 -7 -6 -17 -6 -26 0 -12 7 -12 11 -3 17 10 7 10 14 0 35 -6 15 -15 27 -19
27 -5 0 -8 4 -8 9 0 5 9 7 20 4 11 -3 20 -14 20 -24 0 -11 7 -19 15 -19 8 0
15 8 15 18 0 13 7 18 21 18 12 -1 24 5 26 12 3 8 -9 12 -44 12 -27 0 -58 7
-70 15 -12 8 -24 12 -27 7z m82 -186 c3 -12 -4 -16 -27 -16 -34 0 -48 15 -31
35 14 17 54 5 58 -19z m-28 -72 c0 -8 -4 -12 -10 -9 -5 3 -10 10 -10 16 0 5 5
9 10 9 6 0 10 -7 10 -16z"></path>
<path d="M6370 2680 c0 -5 5 -10 10 -10 6 0 10 5 10 10 0 6 -4 10 -10 10 -5 0
-10 -4 -10 -10z"></path>
<path d="M5096 2672 c-3 -6 -1 -14 5 -17 15 -10 25 3 12 16 -7 7 -13 7 -17 1z"></path>
<path d="M5190 2671 c0 -12 29 -23 41 -15 18 10 9 24 -16 24 -14 0 -25 -4 -25
-9z"></path>
<path d="M5267 2663 c-11 -10 -8 -43 3 -43 6 0 10 11 10 25 0 26 -2 29 -13 18z"></path>
<path d="M5220 2623 c0 -17 -8 -21 -52 -26 -28 -4 -55 -12 -58 -18 -4 -6 -3
-26 3 -45 8 -27 7 -37 -4 -47 -24 -20 -41 -67 -26 -72 40 -12 76 -10 80 4 4
12 5 12 6 -3 1 -15 6 -17 28 -11 15 3 31 11 34 17 4 6 8 5 11 -3 3 -8 0 -21
-5 -30 -17 -27 -1 -51 30 -47 21 2 27 8 25 23 -1 11 -4 42 -5 70 -2 42 -5 50
-21 50 -18 0 -20 8 -21 67 0 39 -6 73 -13 80 -9 9 -12 8 -12 -9z"></path>
<path d="M5010 2602 c0 -26 34 -72 53 -72 15 0 5 56 -12 78 -26 30 -41 28 -41
-6z"></path>
<path d="M6063 2607 c5 -15 37 -22 37 -9 0 5 -9 12 -21 15 -13 3 -19 1 -16 -6z"></path>
<path d="M5270 2540 c0 -22 5 -40 10 -40 6 0 10 18 10 40 0 22 -4 40 -10 40
-5 0 -10 -18 -10 -40z"></path>
<path d="M5740 2540 c0 -28 -6 -45 -20 -57 -29 -25 -25 -35 13 -31 27 3 33 7
35 32 5 39 -6 96 -18 96 -6 0 -10 -18 -10 -40z"></path>
<path d="M5710 2516 c0 -9 5 -16 10 -16 6 0 10 4 10 9 0 6 -4 13 -10 16 -5 3
-10 -1 -10 -9z"></path>
<path d="M6706 2499 c-19 -33 -15 -49 8 -30 14 12 28 61 17 61 -4 0 -15 -14
-25 -31z"></path>
<path d="M5660 2376 c0 -61 11 -89 25 -66 9 14 -6 130 -16 130 -5 0 -9 -29 -9
-64z"></path>
<path d="M5729 2308 c-32 -36 -38 -53 -14 -44 9 3 33 -5 53 -18 l38 -24 23 24
c18 19 20 27 11 44 -6 11 -17 20 -24 20 -8 0 -19 7 -26 15 -18 22 -28 19 -61
-17z m66 -18 c3 -5 2 -10 -4 -10 -5 0 -13 5 -16 10 -3 6 -2 10 4 10 5 0 13 -4
16 -10z"></path>
<path d="M6796 2295 c1 -47 11 -54 24 -20 12 32 7 55 -12 55 -8 0 -13 -13 -12
-35z"></path>
<path d="M5232 2311 c2 -7 7 -12 11 -12 12 1 9 15 -3 20 -7 2 -11 -2 -8 -8z"></path>
<path d="M5865 2300 c-3 -6 4 -10 17 -10 13 0 29 -5 35 -11 8 -8 13 -8 17 0
11 18 -3 31 -34 31 -16 0 -32 -4 -35 -10z"></path>
<path d="M6971 2249 c-13 -10 -38 -19 -57 -19 -36 0 -55 -17 -33 -31 8 -5 38
-9 67 -9 39 0 52 4 52 14 0 8 -5 18 -11 22 -8 5 -8 9 1 14 7 4 11 12 9 18 -2
6 -14 2 -28 -9z"></path>
<path d="M6717 2253 c-12 -11 -8 -23 7 -23 8 0 16 7 20 15 5 15 -14 21 -27 8z"></path>
<path d="M5640 2226 c0 -11 9 -16 30 -16 17 0 30 5 30 10 0 6 -6 10 -14 10 -8
0 -21 3 -30 6 -11 4 -16 1 -16 -10z"></path>
<path d="M5880 2195 c0 -10 7 -15 18 -13 21 4 19 22 -2 26 -10 2 -16 -3 -16
-13z"></path>
<path d="M6700 2181 c-6 -12 -9 -21 -8 -22 6 -1 66 -8 123 -13 l60 -6 -30 25
c-20 17 -42 25 -67 25 -20 0 -43 3 -51 6 -10 3 -20 -3 -27 -15z"></path>
<path d="M6930 2131 c0 -9 33 -21 58 -21 6 0 12 7 12 15 0 10 -11 15 -35 15
-19 0 -35 -4 -35 -9z"></path>
<path d="M5594 2115 c3 -9 6 -19 6 -21 0 -2 7 -4 16 -4 22 0 13 34 -10 38 -14
3 -17 0 -12 -13z"></path>
<path d="M6645 820 c-3 -6 1 -13 10 -16 19 -8 30 0 20 15 -8 14 -22 14 -30 1z"></path>
<path d="M6565 810 c3 -5 12 -7 20 -3 21 7 19 13 -6 13 -11 0 -18 -4 -14 -10z"></path>
<path d="M6420 800 c-20 -12 -5 -24 16 -12 9 5 12 12 7 15 -5 3 -15 2 -23 -3z"></path>
<path d="M6498 803 c7 -3 16 -2 19 1 4 3 -2 6 -13 5 -11 0 -14 -3 -6 -6z"></path>
<path d="M6265 780 c-3 -5 1 -10 9 -10 9 0 16 5 16 10 0 6 -4 10 -9 10 -6 0
-13 -4 -16 -10z"></path>
<path d="M6340 780 c0 -5 7 -7 15 -4 8 4 15 8 15 10 0 2 -7 4 -15 4 -8 0 -15
-4 -15 -10z"></path>
<path d="M6175 770 c-4 -6 5 -10 20 -10 15 0 24 4 20 10 -3 6 -12 10 -20 10
-8 0 -17 -4 -20 -10z"></path>
<path d="M6100 760 c0 -13 11 -13 30 0 12 8 11 10 -7 10 -13 0 -23 -4 -23 -10z"></path>
<path d="M6670 760 c0 -5 5 -10 10 -10 6 0 10 5 10 10 0 6 -4 10 -10 10 -5 0
-10 -4 -10 -10z"></path>
<path d="M6690 690 c0 -5 5 -10 10 -10 6 0 10 5 10 10 0 6 -4 10 -10 10 -5 0
-10 -4 -10 -10z"></path>
<path d="M6710 605 c0 -8 5 -15 10 -15 6 0 10 7 10 15 0 8 -4 15 -10 15 -5 0
-10 -7 -10 -15z"></path>
<path d="M6730 520 c0 -11 5 -20 10 -20 6 0 10 9 10 20 0 11 -4 20 -10 20 -5
0 -10 -9 -10 -20z"></path>
<path d="M6750 446 c0 -8 5 -18 10 -21 6 -3 10 3 10 14 0 12 -4 21 -10 21 -5
0 -10 -6 -10 -14z"></path>
<path d="M6770 361 c0 -12 5 -21 10 -21 6 0 10 6 10 14 0 8 -4 18 -10 21 -5 3
-10 -3 -10 -14z"></path>
<path d="M6790 275 c0 -8 5 -15 10 -15 6 0 10 7 10 15 0 8 -4 15 -10 15 -5 0
-10 -7 -10 -15z"></path>
<path d="M6810 191 c0 -12 5 -21 10 -21 6 0 10 6 10 14 0 8 -4 18 -10 21 -5 3
-10 -3 -10 -14z"></path>
<path d="M6830 111 c0 -12 5 -21 10 -21 6 0 10 6 10 14 0 8 -4 18 -10 21 -5 3
-10 -3 -10 -14z"></path>
<path d="M6846 43 c-12 -12 -6 -43 9 -43 8 0 15 9 15 19 0 21 -13 34 -24 24z"></path>
</g>
</svg>